<svg width="171" height="174" viewBox="0 0 171 174" fill="none" xmlns="http://www.w3.org/2000/svg">
<path fill-rule="evenodd" clip-rule="evenodd" d="M126.25 43.3056C126.25 43.2901 126.25 43.2745 126.25 43.259C126.25 20.4499 107.983 2 85.5 2C63.0166 2 44.7499 20.4499 44.7499 43.259L44.7499 43.3058C66.7766 44.3322 84.4526 62.226 85.4552 84.518L85.5 84.518C85.5149 84.518 85.5298 84.518 85.5446 84.518C86.5472 62.2259 104.223 44.332 126.25 43.3056ZM87.5492 84.4667C88.5721 63.3016 105.337 46.3573 126.201 45.3104C125.178 66.4755 108.413 83.4198 87.5492 84.4667ZM87.4998 86.4715C109.527 85.4451 127.203 67.5512 128.205 45.2591C128.22 45.2591 128.235 45.2591 128.25 45.2591C150.733 45.2591 169 63.709 169 86.5181C169 109.327 150.733 127.777 128.25 127.777L128.205 127.777C127.202 105.485 109.526 87.5912 87.4998 86.5648L87.4998 86.5181C87.4998 86.5026 87.4998 86.487 87.4998 86.4715ZM85.5001 86.5183C86.1704 86.5183 86.8371 86.5339 87.4998 86.5648C87.5247 109.337 105.758 127.753 128.205 127.777C128.235 128.44 128.25 129.107 128.25 129.777H128.25C104.682 129.777 85.5681 110.478 85.4999 86.646C85.5001 86.6035 85.5001 86.5609 85.5001 86.5183ZM83.5001 86.5648C83.5001 86.5493 83.5001 86.5338 83.5001 86.5183L83.5001 86.4715C61.4735 85.4451 43.7975 67.5512 42.7948 45.2593L42.7501 45.2593C20.2667 45.2593 2 63.7092 2 86.5183C2 109.327 20.2667 127.777 42.7501 127.777C42.765 127.777 42.7798 127.777 42.7947 127.777C43.7973 105.485 61.4733 87.5911 83.5001 86.5648ZM42.7498 129.777C19.1397 129.777 0 110.409 0 86.5183C-2.9007e-06 62.627 19.1398 43.2593 42.7499 43.2593V43.259C42.7499 19.3677 61.8898 0 85.5 0C109.11 0 128.25 19.3677 128.25 43.259C151.86 43.2591 171 62.6269 171 86.5181C171 110.409 151.86 129.777 128.25 129.777V129.777C128.25 153.669 109.11 173.036 85.4999 173.036C61.8897 173.036 42.7498 153.669 42.7498 129.777ZM83.4507 84.4667C82.4277 63.3017 65.663 46.3575 44.7994 45.3106C45.8224 66.4755 62.587 83.4197 83.4507 84.4667Z" fill="#194129"/>
</svg>
