<svg width="228" height="121" viewBox="0 0 228 121" fill="none" xmlns="http://www.w3.org/2000/svg">
<path d="M8.80682 97V24.2727H34.233C39.2992 24.2727 43.4777 25.1487 46.7685 26.9006C50.0592 28.6288 52.5095 30.9607 54.1193 33.8963C55.7292 36.8082 56.5341 40.0398 56.5341 43.5909C56.5341 46.7159 55.9777 49.2964 54.8651 51.3324C53.776 53.3684 52.3319 54.9782 50.5327 56.1619C48.7571 57.3456 46.8277 58.2216 44.7443 58.7898V59.5C46.9697 59.642 49.2069 60.4233 51.456 61.8438C53.705 63.2642 55.5871 65.3002 57.1023 67.9517C58.6174 70.6032 59.375 73.8466 59.375 77.6818C59.375 81.3277 58.5464 84.6065 56.8892 87.5185C55.232 90.4304 52.616 92.7386 49.0412 94.4432C45.4664 96.1477 40.8144 97 35.0852 97H8.80682ZM17.6136 89.1875H35.0852C40.8381 89.1875 44.9219 88.0748 47.3366 85.8494C49.7751 83.6004 50.9943 80.8778 50.9943 77.6818C50.9943 75.2197 50.367 72.947 49.1122 70.8636C47.8575 68.7566 46.0701 67.0758 43.75 65.821C41.4299 64.5426 38.6837 63.9034 35.5114 63.9034H17.6136V89.1875ZM17.6136 56.233H33.9489C36.6004 56.233 38.9915 55.7121 41.1222 54.6705C43.2765 53.6288 44.9811 52.161 46.2358 50.267C47.5142 48.3731 48.1534 46.1477 48.1534 43.5909C48.1534 40.3949 47.0407 37.6842 44.8153 35.4588C42.59 33.2098 39.0625 32.0852 34.233 32.0852H17.6136V56.233ZM173.147 77.1136L173.005 66.7443H174.71L198.573 42.4545H208.942L183.516 68.1648H182.806L173.147 77.1136ZM165.335 97V24.2727H173.715V97H165.335ZM199.994 97L178.687 70.0114L184.653 64.1875L210.647 97H199.994ZM211.229 97V42.4545H219.61V97H211.229ZM215.49 33.3636C213.857 33.3636 212.448 32.8073 211.265 31.6946C210.105 30.5819 209.525 29.2443 209.525 27.6818C209.525 26.1193 210.105 24.7817 211.265 23.669C212.448 22.5563 213.857 22 215.49 22C217.124 22 218.521 22.5563 219.681 23.669C220.864 24.7817 221.456 26.1193 221.456 27.6818C221.456 29.2443 220.864 30.5819 219.681 31.6946C218.521 32.8073 217.124 33.3636 215.49 33.3636Z" fill="#221F1D"/>
<path d="M8.80682 97H7.80682V98H8.80682V97ZM8.80682 24.2727V23.2727H7.80682V24.2727H8.80682ZM46.7685 26.9006L46.2985 27.7833L46.3035 27.7859L46.7685 26.9006ZM54.1193 33.8963L53.2425 34.3771L53.2442 34.3801L54.1193 33.8963ZM54.8651 51.3324L53.9875 50.8528L53.9833 50.8607L54.8651 51.3324ZM50.5327 56.1619L49.983 55.3265L49.978 55.3299L50.5327 56.1619ZM44.7443 58.7898L44.4812 57.825L43.7443 58.026V58.7898H44.7443ZM44.7443 59.5H43.7443V60.4382L44.6806 60.498L44.7443 59.5ZM51.456 61.8438L50.922 62.6892L51.456 61.8438ZM56.8892 87.5185L57.7583 88.0131L56.8892 87.5185ZM49.0412 94.4432L48.6108 93.5405L49.0412 94.4432ZM17.6136 89.1875H16.6136V90.1875H17.6136V89.1875ZM47.3367 85.8494L48.0143 86.5848L48.0146 86.5845L47.3367 85.8494ZM49.1122 70.8636L48.253 71.3753L48.2556 71.3796L49.1122 70.8636ZM43.75 65.821L43.2674 66.6969L43.2743 66.7006L43.75 65.821ZM17.6136 63.9034V62.9034H16.6136V63.9034H17.6136ZM17.6136 56.233H16.6136V57.233H17.6136V56.233ZM41.1222 54.6705L40.6869 53.7702L40.6829 53.7721L41.1222 54.6705ZM46.2358 50.267L45.4069 49.7076L45.4021 49.7148L46.2358 50.267ZM44.8153 35.4588L44.1045 36.1622L44.1082 36.1659L44.8153 35.4588ZM17.6136 32.0852V31.0852H16.6136V32.0852H17.6136ZM9.80682 97V24.2727H7.80682V97H9.80682ZM8.80682 25.2727H34.233V23.2727H8.80682V25.2727ZM34.233 25.2727C39.1915 25.2727 43.195 26.131 46.2985 27.7833L47.2384 26.0179C43.7605 24.1663 39.407 23.2727 34.233 23.2727V25.2727ZM46.3035 27.7859C49.4401 29.4332 51.7375 31.6326 53.2425 34.3771L54.9961 33.4155C53.2815 30.2888 50.6783 27.8244 47.2334 26.0152L46.3035 27.7859ZM53.2442 34.3801C54.7666 37.134 55.5341 40.1973 55.5341 43.5909H57.5341C57.5341 39.8823 56.6917 36.4825 54.9945 33.4125L53.2442 34.3801ZM55.5341 43.5909C55.5341 46.6041 54.9968 49.0061 53.9876 50.8528L55.7426 51.812C56.9587 49.5867 57.5341 46.8278 57.5341 43.5909H55.5341ZM53.9833 50.8607C52.9671 52.7606 51.633 54.241 49.9831 55.3265L51.0823 56.9973C53.0308 55.7154 54.585 53.9762 55.7468 51.804L53.9833 50.8607ZM49.978 55.3299C48.2929 56.4533 46.4621 57.2848 44.4812 57.825L45.0074 59.7545C47.1932 59.1584 49.2213 58.238 51.0874 56.994L49.978 55.3299ZM43.7443 58.7898V59.5H45.7443V58.7898H43.7443ZM44.6806 60.498C46.7095 60.6275 48.7872 61.341 50.922 62.6892L51.99 60.9983C49.6266 59.5056 47.2299 58.6566 44.808 58.502L44.6806 60.498ZM50.922 62.6892C53.0135 64.0102 54.7879 65.9172 56.234 68.4478L57.9705 67.4556C56.3863 64.6832 54.3966 62.5182 51.99 60.9983L50.922 62.6892ZM56.234 68.4478C57.6434 70.9142 58.375 73.9767 58.375 77.6818H60.375C60.375 73.7164 59.5914 70.2922 57.9705 67.4556L56.234 68.4478ZM58.375 77.6818C58.375 81.17 57.584 84.2758 56.0201 87.0238L57.7583 88.0131C59.5088 84.9373 60.375 81.4854 60.375 77.6818H58.375ZM56.0201 87.0238C54.4813 89.7277 52.0355 91.9076 48.6108 93.5405L49.4716 95.3458C53.1965 93.5697 55.9827 91.1331 57.7583 88.0131L56.0201 87.0238ZM48.6108 93.5405C45.2167 95.1589 40.727 96 35.0852 96V98C40.9018 98 45.7161 97.1365 49.4716 95.3458L48.6108 93.5405ZM35.0852 96H8.80682V98H35.0852V96ZM17.6136 90.1875H35.0852V88.1875H17.6136V90.1875ZM35.0852 90.1875C40.9166 90.1875 45.3184 89.0692 48.0143 86.5848L46.659 85.1141C44.5253 87.0804 40.7595 88.1875 35.0852 88.1875V90.1875ZM48.0146 86.5845C50.6495 84.1543 51.9943 81.1688 51.9943 77.6818H49.9943C49.9943 80.5868 48.9007 83.0465 46.6587 85.1144L48.0146 86.5845ZM51.9943 77.6818C51.9943 75.0403 51.3186 72.5888 49.9689 70.3477L48.2556 71.3796C49.4153 73.3051 49.9943 75.3991 49.9943 77.6818H51.9943ZM49.9714 70.352C48.6174 68.0783 46.692 66.2752 44.2257 64.9414L43.2743 66.7006C45.4481 67.8763 47.0976 69.435 48.253 71.3753L49.9714 70.352ZM44.2326 64.9452C41.7381 63.5707 38.8192 62.9034 35.5114 62.9034V64.9034C38.5482 64.9034 41.1218 65.5146 43.2674 66.6969L44.2326 64.9452ZM35.5114 62.9034H17.6136V64.9034H35.5114V62.9034ZM16.6136 63.9034V89.1875H18.6136V63.9034H16.6136ZM17.6136 57.233H33.9489V55.233H17.6136V57.233ZM33.9489 57.233C36.7345 57.233 39.2785 56.6849 41.5614 55.5688L40.6829 53.7721C38.7044 54.7393 36.4663 55.233 33.9489 55.233V57.233ZM41.5575 55.5707C43.8645 54.4553 45.7102 52.871 47.0694 50.8193L45.4021 49.7148C44.2519 51.4509 42.6886 52.8023 40.6869 53.7702L41.5575 55.5707ZM47.0646 50.8265C48.4676 48.748 49.1534 46.3225 49.1534 43.5909H47.1534C47.1534 45.973 46.5608 47.9982 45.4069 49.7076L47.0646 50.8265ZM49.1534 43.5909C49.1534 40.1343 47.9386 37.1679 45.5224 34.7517L44.1082 36.1659C46.1428 38.2005 47.1534 40.6555 47.1534 43.5909H49.1534ZM45.5262 34.7555C43.0341 32.2369 39.1914 31.0852 34.233 31.0852V33.0852C38.9336 33.0852 42.1458 34.1827 44.1045 36.1622L45.5262 34.7555ZM34.233 31.0852H17.6136V33.0852H34.233V31.0852ZM16.6136 32.0852V56.233H18.6136V32.0852H16.6136ZM173.147 77.1136L172.147 77.1273L172.178 79.3747L173.827 77.8472L173.147 77.1136ZM173.005 66.7443V65.7443H171.991L172.005 66.758L173.005 66.7443ZM174.71 66.7443V67.7443H175.129L175.423 67.4451L174.71 66.7443ZM198.573 42.4545V41.4545H198.154L197.86 41.7537L198.573 42.4545ZM208.942 42.4545L209.654 43.1577L211.338 41.4545H208.942V42.4545ZM183.516 68.1648V69.1648H183.934L184.227 68.8679L183.516 68.1648ZM182.806 68.1648V67.1648H182.414L182.126 67.4312L182.806 68.1648ZM165.335 97H164.335V98H165.335V97ZM165.335 24.2727V23.2727H164.335V24.2727H165.335ZM173.715 24.2727H174.715V23.2727H173.715V24.2727ZM173.715 97V98H174.715V97H173.715ZM199.994 97L199.209 97.6196L199.509 98H199.994V97ZM178.687 70.0114L177.988 69.2958L177.344 69.9245L177.902 70.631L178.687 70.0114ZM184.653 64.1875L185.437 63.5665L184.748 62.6972L183.954 63.4719L184.653 64.1875ZM210.647 97V98H212.715L211.431 96.379L210.647 97ZM174.147 77.0999L174.005 66.7306L172.005 66.758L172.147 77.1273L174.147 77.0999ZM173.005 67.7443H174.71V65.7443H173.005V67.7443ZM175.423 67.4451L199.286 43.1554L197.86 41.7537L173.996 66.0435L175.423 67.4451ZM198.573 43.4545H208.942V41.4545H198.573V43.4545ZM208.231 41.7514L182.805 67.4616L184.227 68.8679L209.654 43.1577L208.231 41.7514ZM183.516 67.1648H182.806V69.1648H183.516V67.1648ZM182.126 67.4312L172.467 76.3801L173.827 77.8472L183.486 68.8983L182.126 67.4312ZM166.335 97V24.2727H164.335V97H166.335ZM165.335 25.2727H173.715V23.2727H165.335V25.2727ZM172.715 24.2727V97H174.715V24.2727H172.715ZM173.715 96H165.335V98H173.715V96ZM200.778 96.3804L179.472 69.3917L177.902 70.631L199.209 97.6196L200.778 96.3804ZM179.385 70.7269L185.351 64.9031L183.954 63.4719L177.988 69.2958L179.385 70.7269ZM183.869 64.8085L209.863 97.621L211.431 96.379L185.437 63.5665L183.869 64.8085ZM210.647 96H199.994V98H210.647V96ZM211.229 97H210.229V98H211.229V97ZM211.229 42.4545V41.4545H210.229V42.4545H211.229ZM219.61 42.4545H220.61V41.4545H219.61V42.4545ZM219.61 97V98H220.61V97H219.61ZM211.265 31.6946L210.572 32.4163L210.58 32.4232L211.265 31.6946ZM211.265 23.669L210.58 22.9404L210.572 22.9473L211.265 23.669ZM219.681 23.669L218.988 24.3908L218.996 24.3977L219.681 23.669ZM219.681 31.6946L218.996 30.9659L218.989 30.9729L219.681 31.6946ZM212.229 97V42.4545H210.229V97H212.229ZM211.229 43.4545H219.61V41.4545H211.229V43.4545ZM218.61 42.4545V97H220.61V42.4545H218.61ZM219.61 96H211.229V98H219.61V96ZM215.49 32.3636C214.11 32.3636 212.947 31.9033 211.949 30.966L210.58 32.4232C211.95 33.7113 213.604 34.3636 215.49 34.3636V32.3636ZM211.957 30.9729C210.987 30.0427 210.525 28.9632 210.525 27.6818H208.525C208.525 29.5255 209.222 31.1211 210.572 32.4163L211.957 30.9729ZM210.525 27.6818C210.525 26.4005 210.987 25.3209 211.957 24.3907L210.572 22.9473C209.222 24.2425 208.525 25.8382 208.525 27.6818H210.525ZM211.949 24.3977C212.947 23.4604 214.11 23 215.49 23V21C213.604 21 211.95 21.6523 210.58 22.9404L211.949 24.3977ZM215.49 23C216.871 23 218.018 23.4598 218.989 24.3907L220.373 22.9473C219.023 21.6529 217.377 21 215.49 21V23ZM218.996 24.3977C219.987 25.3298 220.456 26.4074 220.456 27.6818H222.456C222.456 25.8313 221.741 24.2336 220.366 22.9404L218.996 24.3977ZM220.456 27.6818C220.456 28.9563 219.987 30.0338 218.996 30.966L220.366 32.4232C221.741 31.13 222.456 29.5324 222.456 27.6818H220.456ZM218.989 30.9729C218.018 31.9038 216.871 32.3636 215.49 32.3636V34.3636C217.377 34.3636 219.023 33.7108 220.373 32.4163L218.989 30.9729Z" fill="#221F1D"/>
<circle cx="111.5" cy="77.5" r="42.5" stroke="#221F1D" stroke-width="2"/>
<path d="M154.5 52C154.5 76.0298 135.243 95.5 111.5 95.5C87.7571 95.5 68.5 76.0298 68.5 52C68.5 27.9702 87.7571 8.5 111.5 8.5C135.243 8.5 154.5 27.9702 154.5 52Z" stroke="#221F1D"/>
</svg>
