<svg width="190" height="205" viewBox="0 0 190 205" fill="none" xmlns="http://www.w3.org/2000/svg">
<ellipse cx="40.3722" cy="102.5" rx="102.5" ry="40.0575" transform="rotate(90 40.3722 102.5)" fill="#713A12"/>
<path d="M148.764 204.5C143.252 204.5 137.95 201.725 133.076 196.6C128.201 191.475 123.787 184.031 120.07 174.792C112.637 156.316 108.029 130.757 108.029 102.5C108.029 74.243 112.637 48.6842 120.07 30.2082C123.787 20.9688 128.201 13.5252 133.076 8.39955C137.95 3.27507 143.252 0.5 148.764 0.5C154.277 0.5 159.579 3.27507 164.453 8.39955C169.328 13.5252 173.742 20.9688 177.458 30.2082C184.891 48.6842 189.5 74.243 189.5 102.5C189.5 130.757 184.891 156.316 177.458 174.792C173.742 184.031 169.328 191.475 164.453 196.6C159.579 201.725 154.277 204.5 148.764 204.5Z" stroke="#AE6F41"/>
<path d="M94.5681 204.5C89.0553 204.5 83.7537 201.725 78.8796 196.6C74.0044 191.475 69.591 184.031 65.874 174.792C58.4411 156.316 53.8325 130.757 53.8325 102.5C53.8325 74.243 58.4411 48.6842 65.874 30.2082C69.591 20.9688 74.0044 13.5252 78.8796 8.39955C83.7537 3.27507 89.0553 0.5 94.5681 0.5C100.081 0.5 105.382 3.27507 110.257 8.39955C115.132 13.5252 119.545 20.9688 123.262 30.2082C130.695 48.6842 135.304 74.243 135.304 102.5C135.304 130.757 130.695 156.316 123.262 174.792C119.545 184.031 115.132 191.475 110.257 196.6C105.382 201.725 100.081 204.5 94.5681 204.5Z" stroke="#AE6F41"/>
</svg>
