<svg width="210" height="213" viewBox="0 0 210 213" fill="none" xmlns="http://www.w3.org/2000/svg">
<path fill-rule="evenodd" clip-rule="evenodd" d="M104.842 104.054C104.83 104.054 104.818 104.054 104.806 104.054L104.769 104.054C103.755 76.366 81.7621 54.1035 54.4034 53.0644L54.4034 53.0268C54.4034 24.8231 76.9918 2 104.806 2C132.621 2 155.209 24.8231 155.209 53.0268C155.209 53.0393 155.209 53.0519 155.209 53.0644C127.85 54.103 105.857 76.3657 104.842 104.054ZM106.806 106.091C106.806 106.078 106.806 106.066 106.806 106.053C106.806 106.041 106.806 106.028 106.806 106.016C134.165 104.977 156.158 82.7144 157.173 55.0265C157.185 55.0265 157.197 55.0265 157.209 55.0265C185.023 55.0265 207.612 77.8496 207.612 106.053C207.612 134.257 185.023 157.08 157.209 157.08C157.197 157.08 157.185 157.08 157.173 157.08C156.158 129.392 134.165 107.129 106.806 106.091ZM104.842 108.053C104.83 108.053 104.818 108.053 104.806 108.053L104.769 108.053C103.755 135.74 81.7622 158.003 54.4034 159.042L54.4034 159.08C54.4034 187.284 76.9918 210.107 104.806 210.107C132.621 210.107 155.209 187.284 155.209 159.08C155.209 159.067 155.209 159.055 155.209 159.042C127.85 158.004 105.857 135.741 104.842 108.053ZM106.845 108.094C107.877 134.664 128.966 155.983 155.17 157.039C154.138 130.469 133.049 109.15 106.845 108.094ZM157.209 159.08C157.209 188.366 133.748 212.107 104.806 212.107C75.865 212.107 52.4034 188.366 52.4034 159.08H52.403C23.4616 159.08 2.29061e-06 135.339 0 106.053C-1.26507e-06 76.7674 23.4616 53.0265 52.4029 53.0265H52.4034C52.4035 23.7408 75.8651 0 104.806 0C133.748 0 157.209 23.7408 157.209 53.0265C186.15 53.0268 209.612 76.7676 209.612 106.053C209.612 135.339 186.15 159.08 157.209 159.08ZM106.845 104.013C133.049 102.957 154.138 81.6375 155.17 55.0675C128.966 56.1236 107.877 77.4426 106.845 104.013ZM102.766 104.013C101.735 77.4429 80.646 56.1241 54.4429 55.0676C55.4746 81.6372 76.5633 102.956 102.766 104.013ZM52.44 55.0265C53.4544 82.7141 75.4472 104.977 102.806 106.016L102.806 106.053L102.806 106.091C75.4473 107.13 53.4546 129.392 52.44 157.08L52.403 157.08C24.5884 157.08 2 134.257 2 106.053C2 77.8496 24.5884 55.0265 52.4029 55.0265L52.44 55.0265ZM102.766 108.094C76.5634 109.15 55.4748 130.469 54.4429 157.039C80.6461 155.982 101.735 134.664 102.766 108.094Z" fill="#194129"/>
</svg>
