<svg width="471" height="174" viewBox="0 0 471 174" fill="none" xmlns="http://www.w3.org/2000/svg">
<rect width="471" height="174" rx="20" fill="#F7F7F7"/>
<rect x="232" y="98" width="225" height="52" rx="26" fill="#161616"/>
<rect x="14" y="28" width="395" height="52" rx="26" fill="#E97761"/>
<path d="M255.598 132V117.455H264.618V119.344H257.793V123.776H263.972V125.658H257.793V132H255.598ZM267.01 132V121.091H269.062V122.824H269.176C269.375 122.237 269.725 121.775 270.227 121.439C270.734 121.098 271.306 120.928 271.946 120.928C272.078 120.928 272.234 120.932 272.414 120.942C272.599 120.951 272.743 120.963 272.848 120.977V123.009C272.762 122.985 272.611 122.959 272.393 122.93C272.175 122.897 271.958 122.881 271.74 122.881C271.238 122.881 270.79 122.987 270.397 123.2C270.009 123.409 269.701 123.7 269.474 124.074C269.247 124.443 269.133 124.865 269.133 125.338V132H267.01ZM274.685 132V121.091H276.809V132H274.685ZM275.758 119.408C275.388 119.408 275.071 119.285 274.806 119.038C274.546 118.787 274.415 118.489 274.415 118.143C274.415 117.793 274.546 117.495 274.806 117.249C275.071 116.998 275.388 116.872 275.758 116.872C276.127 116.872 276.442 116.998 276.702 117.249C276.968 117.495 277.1 117.793 277.1 118.143C277.1 118.489 276.968 118.787 276.702 119.038C276.442 119.285 276.127 119.408 275.758 119.408ZM284.368 132.22C283.293 132.22 282.367 131.991 281.591 131.531C280.819 131.067 280.222 130.416 279.801 129.578C279.384 128.735 279.176 127.748 279.176 126.616C279.176 125.499 279.384 124.514 279.801 123.662C280.222 122.81 280.809 122.144 281.562 121.666C282.32 121.188 283.205 120.949 284.218 120.949C284.834 120.949 285.431 121.051 286.008 121.254C286.586 121.458 287.104 121.777 287.564 122.213C288.023 122.649 288.385 123.214 288.65 123.911C288.915 124.602 289.048 125.442 289.048 126.432V127.185H280.376V125.594H286.967C286.967 125.035 286.853 124.54 286.626 124.109C286.399 123.674 286.079 123.33 285.667 123.08C285.26 122.829 284.782 122.703 284.233 122.703C283.636 122.703 283.115 122.85 282.67 123.143C282.23 123.432 281.889 123.811 281.647 124.28C281.411 124.744 281.292 125.248 281.292 125.793V127.036C281.292 127.765 281.42 128.385 281.676 128.896C281.936 129.408 282.298 129.798 282.762 130.068C283.226 130.333 283.769 130.466 284.389 130.466C284.791 130.466 285.158 130.409 285.49 130.295C285.821 130.177 286.108 130.002 286.349 129.77C286.591 129.538 286.775 129.251 286.903 128.911L288.913 129.273C288.752 129.865 288.463 130.383 288.047 130.828C287.635 131.268 287.116 131.612 286.491 131.858C285.871 132.099 285.163 132.22 284.368 132.22ZM293.528 125.523V132H291.404V121.091H293.442V122.866H293.577C293.828 122.289 294.221 121.825 294.756 121.474C295.296 121.124 295.976 120.949 296.795 120.949C297.538 120.949 298.189 121.105 298.748 121.418C299.307 121.725 299.74 122.185 300.048 122.795C300.355 123.406 300.509 124.161 300.509 125.061V132H298.386V125.317C298.386 124.526 298.18 123.908 297.768 123.463C297.356 123.013 296.79 122.788 296.07 122.788C295.578 122.788 295.14 122.895 294.756 123.108C294.378 123.321 294.077 123.634 293.854 124.045C293.637 124.453 293.528 124.945 293.528 125.523ZM307.441 132.213C306.56 132.213 305.774 131.988 305.083 131.538C304.397 131.084 303.857 130.437 303.464 129.599C303.076 128.757 302.881 127.746 302.881 126.567C302.881 125.388 303.078 124.379 303.471 123.541C303.869 122.703 304.413 122.062 305.104 121.616C305.796 121.171 306.579 120.949 307.455 120.949C308.132 120.949 308.677 121.062 309.089 121.29C309.505 121.512 309.827 121.773 310.055 122.071C310.287 122.369 310.467 122.632 310.594 122.859H310.722V117.455H312.846V132H310.772V130.303H310.594C310.467 130.535 310.282 130.8 310.04 131.098C309.804 131.396 309.477 131.657 309.06 131.879C308.644 132.102 308.104 132.213 307.441 132.213ZM307.91 130.402C308.521 130.402 309.037 130.241 309.458 129.919C309.884 129.592 310.206 129.14 310.424 128.562C310.647 127.985 310.758 127.312 310.758 126.545C310.758 125.788 310.649 125.125 310.431 124.557C310.213 123.989 309.894 123.546 309.472 123.229C309.051 122.911 308.53 122.753 307.91 122.753C307.271 122.753 306.738 122.919 306.312 123.25C305.886 123.581 305.564 124.034 305.346 124.607C305.133 125.179 305.026 125.826 305.026 126.545C305.026 127.275 305.135 127.93 305.353 128.513C305.571 129.095 305.893 129.557 306.319 129.898C306.75 130.234 307.28 130.402 307.91 130.402ZM324.051 123.754L322.127 124.095C322.046 123.849 321.918 123.615 321.743 123.392C321.573 123.17 321.341 122.987 321.047 122.845C320.754 122.703 320.387 122.632 319.946 122.632C319.345 122.632 318.843 122.767 318.441 123.037C318.038 123.302 317.837 123.645 317.837 124.067C317.837 124.431 317.972 124.725 318.242 124.947C318.512 125.17 318.947 125.352 319.549 125.494L321.282 125.892C322.285 126.124 323.033 126.482 323.526 126.964C324.018 127.447 324.265 128.075 324.265 128.847C324.265 129.5 324.075 130.082 323.696 130.594C323.322 131.1 322.799 131.498 322.127 131.787C321.459 132.076 320.685 132.22 319.804 132.22C318.583 132.22 317.586 131.96 316.814 131.439C316.042 130.913 315.569 130.168 315.394 129.202L317.446 128.889C317.574 129.424 317.837 129.829 318.235 130.104C318.632 130.374 319.151 130.509 319.79 130.509C320.486 130.509 321.042 130.364 321.459 130.075C321.876 129.782 322.084 129.424 322.084 129.003C322.084 128.662 321.956 128.375 321.701 128.143C321.45 127.911 321.064 127.736 320.543 127.618L318.696 127.213C317.678 126.981 316.926 126.612 316.438 126.105C315.955 125.598 315.713 124.957 315.713 124.18C315.713 123.536 315.893 122.973 316.253 122.49C316.613 122.007 317.11 121.631 317.745 121.361C318.379 121.086 319.106 120.949 319.925 120.949C321.104 120.949 322.032 121.205 322.709 121.716C323.386 122.223 323.834 122.902 324.051 123.754ZM335.067 132.241C334.376 132.241 333.751 132.114 333.192 131.858C332.633 131.598 332.191 131.221 331.864 130.729C331.542 130.236 331.381 129.633 331.381 128.918C331.381 128.302 331.499 127.795 331.736 127.398C331.973 127 332.292 126.685 332.695 126.453C333.097 126.221 333.547 126.046 334.044 125.928C334.542 125.809 335.048 125.719 335.564 125.658C336.218 125.582 336.748 125.52 337.155 125.473C337.562 125.421 337.858 125.338 338.043 125.224C338.228 125.111 338.32 124.926 338.32 124.67V124.621C338.32 124 338.145 123.52 337.794 123.179C337.449 122.838 336.933 122.668 336.246 122.668C335.531 122.668 334.968 122.826 334.556 123.143C334.149 123.456 333.867 123.804 333.711 124.188L331.715 123.733C331.952 123.07 332.297 122.535 332.752 122.128C333.211 121.716 333.739 121.418 334.336 121.233C334.932 121.044 335.56 120.949 336.218 120.949C336.653 120.949 337.115 121.001 337.603 121.105C338.095 121.205 338.554 121.389 338.98 121.659C339.411 121.929 339.764 122.315 340.039 122.817C340.313 123.314 340.451 123.96 340.451 124.756V132H338.377V130.509H338.292C338.154 130.783 337.948 131.053 337.674 131.318C337.399 131.583 337.046 131.804 336.615 131.979C336.185 132.154 335.668 132.241 335.067 132.241ZM335.529 130.537C336.116 130.537 336.618 130.421 337.034 130.189C337.456 129.957 337.775 129.654 337.993 129.28C338.216 128.901 338.327 128.496 338.327 128.065V126.659C338.251 126.735 338.105 126.806 337.887 126.872C337.674 126.934 337.43 126.988 337.155 127.036C336.881 127.078 336.613 127.118 336.353 127.156C336.092 127.189 335.874 127.218 335.699 127.241C335.287 127.294 334.911 127.381 334.57 127.504C334.234 127.627 333.964 127.805 333.76 128.037C333.561 128.264 333.462 128.567 333.462 128.946C333.462 129.472 333.656 129.869 334.044 130.139C334.433 130.404 334.927 130.537 335.529 130.537ZM345.403 125.523V132H343.279V121.091H345.317V122.866H345.452C345.703 122.289 346.096 121.825 346.631 121.474C347.171 121.124 347.851 120.949 348.67 120.949C349.413 120.949 350.064 121.105 350.623 121.418C351.182 121.725 351.615 122.185 351.923 122.795C352.23 123.406 352.384 124.161 352.384 125.061V132H350.261V125.317C350.261 124.526 350.055 123.908 349.643 123.463C349.231 123.013 348.665 122.788 347.945 122.788C347.453 122.788 347.015 122.895 346.631 123.108C346.253 123.321 345.952 123.634 345.729 124.045C345.512 124.453 345.403 124.945 345.403 125.523ZM359.316 132.213C358.435 132.213 357.649 131.988 356.958 131.538C356.272 131.084 355.732 130.437 355.339 129.599C354.951 128.757 354.756 127.746 354.756 126.567C354.756 125.388 354.953 124.379 355.346 123.541C355.744 122.703 356.288 122.062 356.979 121.616C357.671 121.171 358.454 120.949 359.33 120.949C360.007 120.949 360.552 121.062 360.964 121.29C361.38 121.512 361.702 121.773 361.93 122.071C362.162 122.369 362.342 122.632 362.469 122.859H362.597V117.455H364.721V132H362.647V130.303H362.469C362.342 130.535 362.157 130.8 361.915 131.098C361.679 131.396 361.352 131.657 360.935 131.879C360.519 132.102 359.979 132.213 359.316 132.213ZM359.785 130.402C360.396 130.402 360.912 130.241 361.333 129.919C361.759 129.592 362.081 129.14 362.299 128.562C362.522 127.985 362.633 127.312 362.633 126.545C362.633 125.788 362.524 125.125 362.306 124.557C362.088 123.989 361.769 123.546 361.347 123.229C360.926 122.911 360.405 122.753 359.785 122.753C359.146 122.753 358.613 122.919 358.187 123.25C357.761 123.581 357.439 124.034 357.221 124.607C357.008 125.179 356.901 125.826 356.901 126.545C356.901 127.275 357.01 127.93 357.228 128.513C357.446 129.095 357.768 129.557 358.194 129.898C358.625 130.234 359.155 130.402 359.785 130.402ZM378.237 121.091V122.795H372.072V121.091H378.237ZM373.762 132V119.827C373.762 119.145 373.911 118.579 374.21 118.129C374.508 117.675 374.903 117.336 375.396 117.114C375.888 116.886 376.423 116.773 377.001 116.773C377.427 116.773 377.791 116.808 378.094 116.879C378.397 116.946 378.622 117.007 378.769 117.064L378.272 118.783C378.173 118.754 378.045 118.721 377.888 118.683C377.732 118.641 377.543 118.619 377.32 118.619C376.804 118.619 376.435 118.747 376.212 119.003C375.995 119.259 375.886 119.628 375.886 120.111V132H373.762ZM383.27 132.241C382.579 132.241 381.954 132.114 381.395 131.858C380.837 131.598 380.394 131.221 380.067 130.729C379.745 130.236 379.584 129.633 379.584 128.918C379.584 128.302 379.703 127.795 379.939 127.398C380.176 127 380.496 126.685 380.898 126.453C381.301 126.221 381.75 126.046 382.248 125.928C382.745 125.809 383.251 125.719 383.767 125.658C384.421 125.582 384.951 125.52 385.358 125.473C385.766 125.421 386.061 125.338 386.246 125.224C386.431 125.111 386.523 124.926 386.523 124.67V124.621C386.523 124 386.348 123.52 385.998 123.179C385.652 122.838 385.136 122.668 384.449 122.668C383.734 122.668 383.171 122.826 382.759 123.143C382.352 123.456 382.07 123.804 381.914 124.188L379.918 123.733C380.155 123.07 380.5 122.535 380.955 122.128C381.414 121.716 381.942 121.418 382.539 121.233C383.135 121.044 383.763 120.949 384.421 120.949C384.856 120.949 385.318 121.001 385.806 121.105C386.298 121.205 386.757 121.389 387.184 121.659C387.614 121.929 387.967 122.315 388.242 122.817C388.516 123.314 388.654 123.96 388.654 124.756V132H386.58V130.509H386.495C386.357 130.783 386.151 131.053 385.877 131.318C385.602 131.583 385.249 131.804 384.819 131.979C384.388 132.154 383.872 132.241 383.27 132.241ZM383.732 130.537C384.319 130.537 384.821 130.421 385.238 130.189C385.659 129.957 385.979 129.654 386.196 129.28C386.419 128.901 386.53 128.496 386.53 128.065V126.659C386.454 126.735 386.308 126.806 386.09 126.872C385.877 126.934 385.633 126.988 385.358 127.036C385.084 127.078 384.816 127.118 384.556 127.156C384.295 127.189 384.078 127.218 383.902 127.241C383.49 127.294 383.114 127.381 382.773 127.504C382.437 127.627 382.167 127.805 381.963 128.037C381.765 128.264 381.665 128.567 381.665 128.946C381.665 129.472 381.859 129.869 382.248 130.139C382.636 130.404 383.131 130.537 383.732 130.537ZM391.482 132V121.091H393.521V122.866H393.656C393.883 122.265 394.254 121.796 394.771 121.46C395.287 121.119 395.905 120.949 396.624 120.949C397.353 120.949 397.964 121.119 398.457 121.46C398.954 121.801 399.321 122.27 399.558 122.866H399.671C399.932 122.284 400.346 121.82 400.914 121.474C401.482 121.124 402.159 120.949 402.945 120.949C403.935 120.949 404.742 121.259 405.367 121.879C405.997 122.5 406.312 123.435 406.312 124.685V132H404.188V124.884C404.188 124.145 403.987 123.61 403.585 123.278C403.182 122.947 402.701 122.781 402.143 122.781C401.451 122.781 400.914 122.994 400.531 123.42C400.147 123.842 399.955 124.384 399.955 125.047V132H397.839V124.749C397.839 124.157 397.654 123.681 397.285 123.321C396.915 122.961 396.435 122.781 395.843 122.781C395.441 122.781 395.069 122.888 394.728 123.101C394.392 123.309 394.12 123.6 393.911 123.974C393.708 124.348 393.606 124.782 393.606 125.274V132H391.482ZM409.158 132V121.091H411.282V132H409.158ZM410.23 119.408C409.861 119.408 409.544 119.285 409.279 119.038C409.018 118.787 408.888 118.489 408.888 118.143C408.888 117.793 409.018 117.495 409.279 117.249C409.544 116.998 409.861 116.872 410.23 116.872C410.6 116.872 410.915 116.998 411.175 117.249C411.44 117.495 411.573 117.793 411.573 118.143C411.573 118.489 411.44 118.787 411.175 119.038C410.915 119.285 410.6 119.408 410.23 119.408ZM416.262 117.455V132H414.138V117.455H416.262ZM420.461 136.091C420.144 136.091 419.855 136.065 419.595 136.013C419.334 135.965 419.14 135.913 419.012 135.857L419.524 134.116C419.912 134.221 420.258 134.266 420.561 134.251C420.864 134.237 421.131 134.124 421.363 133.911C421.6 133.697 421.808 133.349 421.988 132.866L422.251 132.142L418.26 121.091H420.532L423.295 129.557H423.409L426.172 121.091H428.451L423.956 133.456C423.747 134.024 423.482 134.505 423.16 134.898C422.838 135.295 422.455 135.594 422.01 135.793C421.565 135.991 421.048 136.091 420.461 136.091ZM433.125 117.455L432.94 127.817H430.973L430.788 117.455H433.125ZM431.96 132.135C431.567 132.135 431.231 131.998 430.951 131.723C430.672 131.444 430.535 131.107 430.539 130.714C430.535 130.326 430.672 129.995 430.951 129.72C431.231 129.441 431.567 129.301 431.96 129.301C432.343 129.301 432.675 129.441 432.954 129.72C433.234 129.995 433.376 130.326 433.38 130.714C433.376 130.975 433.307 131.214 433.174 131.432C433.047 131.645 432.876 131.815 432.663 131.943C432.45 132.071 432.216 132.135 431.96 132.135Z" fill="white"/>
<path d="M35.446 60L31.4119 45.4545H33.7202L36.554 56.7188H36.6889L39.6364 45.4545H41.9233L44.8707 56.7259H45.0057L47.8324 45.4545H50.1477L46.1065 60H43.8977L40.8366 49.1051H40.723L37.6619 60H35.446ZM54.1019 53.5227V60H51.9783V45.4545H54.0735V50.8665H54.2085C54.4641 50.2794 54.8548 49.813 55.3803 49.4673C55.9059 49.1217 56.5924 48.9489 57.44 48.9489C58.1881 48.9489 58.8415 49.1027 59.4002 49.4105C59.9637 49.7183 60.3993 50.1776 60.707 50.7884C61.0195 51.3944 61.1758 52.152 61.1758 53.0611V60H59.0522V53.3168C59.0522 52.5166 58.8462 51.8963 58.4343 51.456C58.0224 51.0109 57.4495 50.7884 56.7156 50.7884C56.2137 50.7884 55.7638 50.8949 55.3661 51.108C54.9731 51.321 54.663 51.6335 54.4357 52.0455C54.2132 52.4527 54.1019 52.9451 54.1019 53.5227ZM68.6048 60.2202C67.582 60.2202 66.6895 59.9858 65.9272 59.517C65.1649 59.0483 64.573 58.3925 64.1516 57.5497C63.7302 56.7069 63.5195 55.7221 63.5195 54.5952C63.5195 53.4635 63.7302 52.474 64.1516 51.6264C64.573 50.7789 65.1649 50.1207 65.9272 49.652C66.6895 49.1832 67.582 48.9489 68.6048 48.9489C69.6275 48.9489 70.52 49.1832 71.2823 49.652C72.0446 50.1207 72.6365 50.7789 73.0579 51.6264C73.4793 52.474 73.69 53.4635 73.69 54.5952C73.69 55.7221 73.4793 56.7069 73.0579 57.5497C72.6365 58.3925 72.0446 59.0483 71.2823 59.517C70.52 59.9858 69.6275 60.2202 68.6048 60.2202ZM68.6119 58.4375C69.2747 58.4375 69.824 58.2623 70.2596 57.9119C70.6952 57.5616 71.0172 57.0952 71.2255 56.5128C71.4386 55.9304 71.5451 55.2888 71.5451 54.5881C71.5451 53.892 71.4386 53.2528 71.2255 52.6705C71.0172 52.0833 70.6952 51.6122 70.2596 51.2571C69.824 50.902 69.2747 50.7244 68.6119 50.7244C67.9442 50.7244 67.3903 50.902 66.9499 51.2571C66.5143 51.6122 66.19 52.0833 65.9769 52.6705C65.7686 53.2528 65.6644 53.892 65.6644 54.5881C65.6644 55.2888 65.7686 55.9304 65.9769 56.5128C66.19 57.0952 66.5143 57.5616 66.9499 57.9119C67.3903 58.2623 67.9442 58.4375 68.6119 58.4375ZM85.4371 60.2131C84.5565 60.2131 83.7705 59.9882 83.0792 59.5384C82.3926 59.0838 81.8529 58.4375 81.4599 57.5994C81.0716 56.7566 80.8775 55.7457 80.8775 54.5668C80.8775 53.3878 81.074 52.3793 81.467 51.5412C81.8647 50.7031 82.4092 50.0616 83.1005 49.6165C83.7918 49.1714 84.5754 48.9489 85.4513 48.9489C86.1284 48.9489 86.6729 49.0625 87.0849 49.2898C87.5015 49.5123 87.8235 49.7727 88.0508 50.071C88.2828 50.3693 88.4627 50.6321 88.5906 50.8594H88.7184V45.4545H90.842V60H88.7681V58.3026H88.5906C88.4627 58.5346 88.2781 58.7997 88.0366 59.098C87.7998 59.3963 87.4731 59.6567 87.0565 59.8793C86.6398 60.1018 86.1 60.2131 85.4371 60.2131ZM85.9059 58.402C86.5167 58.402 87.0328 58.241 87.4542 57.919C87.8803 57.5923 88.2023 57.1402 88.4201 56.5625C88.6426 55.9848 88.7539 55.3125 88.7539 54.5455C88.7539 53.7879 88.645 53.125 88.4272 52.5568C88.2094 51.9886 87.8898 51.5459 87.4684 51.2287C87.047 50.9115 86.5262 50.7528 85.9059 50.7528C85.2667 50.7528 84.734 50.9186 84.3079 51.25C83.8817 51.5814 83.5598 52.0336 83.342 52.6065C83.1289 53.1795 83.0224 53.8258 83.0224 54.5455C83.0224 55.2746 83.1313 55.9304 83.3491 56.5128C83.5669 57.0952 83.8888 57.5568 84.315 57.8977C84.7459 58.2339 85.2762 58.402 85.9059 58.402ZM98.468 60.2202C97.4453 60.2202 96.5528 59.9858 95.7905 59.517C95.0282 59.0483 94.4363 58.3925 94.0149 57.5497C93.5935 56.7069 93.3828 55.7221 93.3828 54.5952C93.3828 53.4635 93.5935 52.474 94.0149 51.6264C94.4363 50.7789 95.0282 50.1207 95.7905 49.652C96.5528 49.1832 97.4453 48.9489 98.468 48.9489C99.4908 48.9489 100.383 49.1832 101.146 49.652C101.908 50.1207 102.5 50.7789 102.921 51.6264C103.343 52.474 103.553 53.4635 103.553 54.5952C103.553 55.7221 103.343 56.7069 102.921 57.5497C102.5 58.3925 101.908 59.0483 101.146 59.517C100.383 59.9858 99.4908 60.2202 98.468 60.2202ZM98.4751 58.4375C99.138 58.4375 99.6873 58.2623 100.123 57.9119C100.558 57.5616 100.88 57.0952 101.089 56.5128C101.302 55.9304 101.408 55.2888 101.408 54.5881C101.408 53.892 101.302 53.2528 101.089 52.6705C100.88 52.0833 100.558 51.6122 100.123 51.2571C99.6873 50.902 99.138 50.7244 98.4751 50.7244C97.8075 50.7244 97.2536 50.902 96.8132 51.2571C96.3776 51.6122 96.0533 52.0833 95.8402 52.6705C95.6319 53.2528 95.5277 53.892 95.5277 54.5881C95.5277 55.2888 95.6319 55.9304 95.8402 56.5128C96.0533 57.0952 96.3776 57.5616 96.8132 57.9119C97.2536 58.2623 97.8075 58.4375 98.4751 58.4375ZM112.559 64.0909C112.242 64.0909 111.953 64.0649 111.692 64.0128C111.432 63.9654 111.238 63.9134 111.11 63.8565L111.621 62.1165C112.01 62.2206 112.355 62.2656 112.658 62.2514C112.961 62.2372 113.229 62.1236 113.461 61.9105C113.698 61.6974 113.906 61.3494 114.086 60.8665L114.349 60.142L110.357 49.0909H112.63L115.393 57.5568H115.506L118.269 49.0909H120.549L116.053 61.456C115.845 62.0241 115.58 62.5047 115.258 62.8977C114.936 63.2955 114.552 63.5938 114.107 63.7926C113.662 63.9915 113.146 64.0909 112.559 64.0909ZM126.769 60.2202C125.746 60.2202 124.854 59.9858 124.091 59.517C123.329 59.0483 122.737 58.3925 122.316 57.5497C121.894 56.7069 121.684 55.7221 121.684 54.5952C121.684 53.4635 121.894 52.474 122.316 51.6264C122.737 50.7789 123.329 50.1207 124.091 49.652C124.854 49.1832 125.746 48.9489 126.769 48.9489C127.792 48.9489 128.684 49.1832 129.446 49.652C130.209 50.1207 130.801 50.7789 131.222 51.6264C131.643 52.474 131.854 53.4635 131.854 54.5952C131.854 55.7221 131.643 56.7069 131.222 57.5497C130.801 58.3925 130.209 59.0483 129.446 59.517C128.684 59.9858 127.792 60.2202 126.769 60.2202ZM126.776 58.4375C127.439 58.4375 127.988 58.2623 128.424 57.9119C128.859 57.5616 129.181 57.0952 129.39 56.5128C129.603 55.9304 129.709 55.2888 129.709 54.5881C129.709 53.892 129.603 53.2528 129.39 52.6705C129.181 52.0833 128.859 51.6122 128.424 51.2571C127.988 50.902 127.439 50.7244 126.776 50.7244C126.108 50.7244 125.554 50.902 125.114 51.2571C124.678 51.6122 124.354 52.0833 124.141 52.6705C123.933 53.2528 123.828 53.892 123.828 54.5881C123.828 55.2888 123.933 55.9304 124.141 56.5128C124.354 57.0952 124.678 57.5616 125.114 57.9119C125.554 58.2623 126.108 58.4375 126.776 58.4375ZM141.135 55.4759V49.0909H143.266V60H141.178V58.1108H141.064C140.813 58.6932 140.411 59.1785 139.857 59.5668C139.307 59.9503 138.623 60.142 137.804 60.142C137.103 60.142 136.483 59.9882 135.943 59.6804C135.408 59.3679 134.987 58.9062 134.679 58.2955C134.376 57.6847 134.224 56.9295 134.224 56.0298V49.0909H136.348V55.7741C136.348 56.5175 136.554 57.1094 136.966 57.5497C137.378 57.9901 137.913 58.2102 138.571 58.2102C138.969 58.2102 139.364 58.1108 139.757 57.9119C140.155 57.7131 140.484 57.4124 140.744 57.0099C141.009 56.6075 141.14 56.0961 141.135 55.4759ZM155.986 64.3182C155.119 64.3182 154.374 64.2045 153.749 63.9773C153.128 63.75 152.622 63.4493 152.229 63.0753C151.836 62.7012 151.542 62.2917 151.348 61.8466L153.173 61.0938C153.301 61.3021 153.472 61.5223 153.685 61.7543C153.902 61.991 154.196 62.1922 154.565 62.358C154.939 62.5237 155.42 62.6065 156.007 62.6065C156.812 62.6065 157.477 62.41 158.003 62.017C158.528 61.6288 158.791 61.0085 158.791 60.1562V58.0114H158.656C158.528 58.2434 158.344 58.5014 158.102 58.7855C157.866 59.0696 157.539 59.3158 157.122 59.5241C156.705 59.7325 156.163 59.8366 155.496 59.8366C154.634 59.8366 153.857 59.6354 153.166 59.233C152.48 58.8258 151.935 58.2268 151.533 57.4361C151.135 56.6406 150.936 55.6629 150.936 54.5028C150.936 53.3428 151.133 52.3485 151.526 51.5199C151.923 50.6913 152.468 50.0568 153.159 49.6165C153.85 49.1714 154.634 48.9489 155.51 48.9489C156.187 48.9489 156.734 49.0625 157.151 49.2898C157.567 49.5123 157.892 49.7727 158.124 50.071C158.36 50.3693 158.543 50.6321 158.67 50.8594H158.827V49.0909H160.908V60.2415C160.908 61.179 160.69 61.9484 160.254 62.5497C159.819 63.151 159.229 63.5961 158.486 63.8849C157.747 64.1738 156.914 64.3182 155.986 64.3182ZM155.964 58.0753C156.575 58.0753 157.091 57.9332 157.513 57.6491C157.939 57.3603 158.261 56.9484 158.479 56.4134C158.701 55.8736 158.812 55.2273 158.812 54.4744C158.812 53.7405 158.704 53.0942 158.486 52.5355C158.268 51.9768 157.948 51.5412 157.527 51.2287C157.106 50.9115 156.585 50.7528 155.964 50.7528C155.325 50.7528 154.793 50.9186 154.366 51.25C153.94 51.5767 153.618 52.0218 153.401 52.5852C153.188 53.1487 153.081 53.7784 153.081 54.4744C153.081 55.1894 153.19 55.8168 153.408 56.3565C153.625 56.8963 153.947 57.3177 154.374 57.6207C154.804 57.9238 155.335 58.0753 155.964 58.0753ZM163.756 60V49.0909H165.879V60H163.756ZM164.828 47.4077C164.459 47.4077 164.142 47.2846 163.876 47.0384C163.616 46.7874 163.486 46.4891 163.486 46.1435C163.486 45.7931 163.616 45.4948 163.876 45.2486C164.142 44.9976 164.459 44.8722 164.828 44.8722C165.197 44.8722 165.512 44.9976 165.773 45.2486C166.038 45.4948 166.17 45.7931 166.17 46.1435C166.17 46.4891 166.038 46.7874 165.773 47.0384C165.512 47.2846 165.197 47.4077 164.828 47.4077ZM173.928 49.0909V50.7955H167.763V49.0909H173.928ZM169.453 60V47.8267C169.453 47.1449 169.603 46.5791 169.901 46.1293C170.199 45.6747 170.595 45.3362 171.087 45.1136C171.579 44.8864 172.114 44.7727 172.692 44.7727C173.118 44.7727 173.483 44.8082 173.786 44.8793C174.089 44.9455 174.314 45.0071 174.461 45.0639L173.963 46.7827C173.864 46.7543 173.736 46.7211 173.58 46.6832C173.424 46.6406 173.234 46.6193 173.012 46.6193C172.496 46.6193 172.126 46.7472 171.904 47.0028C171.686 47.2585 171.577 47.6278 171.577 48.1108V60H169.453ZM181.211 49.0909V50.7955H175.252V49.0909H181.211ZM176.85 46.4773H178.974V56.7969C178.974 57.2088 179.036 57.5189 179.159 57.7273C179.282 57.9309 179.44 58.0705 179.635 58.1463C179.833 58.2173 180.049 58.2528 180.281 58.2528C180.451 58.2528 180.6 58.241 180.728 58.2173C180.856 58.1937 180.956 58.1747 181.027 58.1605L181.41 59.9148C181.287 59.9621 181.112 60.0095 180.885 60.0568C180.657 60.1089 180.373 60.1373 180.032 60.142C179.474 60.1515 178.953 60.0521 178.47 59.8438C177.987 59.6354 177.596 59.3134 177.298 58.8778C177 58.4422 176.85 57.8954 176.85 57.2372V46.4773ZM193.449 60.2202C192.393 60.2202 191.484 59.9811 190.721 59.5028C189.964 59.0199 189.381 58.3546 188.974 57.5071C188.567 56.6596 188.363 55.6889 188.363 54.5952C188.363 53.4872 188.572 52.5095 188.988 51.6619C189.405 50.8097 189.992 50.1444 190.75 49.6662C191.507 49.188 192.4 48.9489 193.427 48.9489C194.256 48.9489 194.994 49.1027 195.643 49.4105C196.292 49.7135 196.815 50.1397 197.213 50.6889C197.615 51.2382 197.854 51.8797 197.93 52.6136H195.863C195.75 52.1023 195.489 51.6619 195.082 51.2926C194.68 50.9233 194.14 50.7386 193.463 50.7386C192.871 50.7386 192.352 50.8949 191.907 51.2074C191.467 51.5152 191.124 51.9555 190.877 52.5284C190.631 53.0966 190.508 53.7689 190.508 54.5455C190.508 55.3409 190.629 56.0275 190.87 56.6051C191.112 57.1828 191.453 57.6302 191.893 57.9474C192.338 58.2647 192.861 58.4233 193.463 58.4233C193.865 58.4233 194.23 58.3499 194.556 58.2031C194.888 58.0516 195.165 57.8362 195.387 57.5568C195.615 57.2775 195.773 56.9413 195.863 56.5483H197.93C197.854 57.2538 197.625 57.8835 197.241 58.4375C196.858 58.9915 196.344 59.4271 195.7 59.7443C195.061 60.0616 194.31 60.2202 193.449 60.2202ZM202.325 45.4545V60H200.201V45.4545H202.325ZM209.777 60.2202C208.754 60.2202 207.861 59.9858 207.099 59.517C206.337 59.0483 205.745 58.3925 205.324 57.5497C204.902 56.7069 204.691 55.7221 204.691 54.5952C204.691 53.4635 204.902 52.474 205.324 51.6264C205.745 50.7789 206.337 50.1207 207.099 49.652C207.861 49.1832 208.754 48.9489 209.777 48.9489C210.799 48.9489 211.692 49.1832 212.454 49.652C213.217 50.1207 213.808 50.7789 214.23 51.6264C214.651 52.474 214.862 53.4635 214.862 54.5952C214.862 55.7221 214.651 56.7069 214.23 57.5497C213.808 58.3925 213.217 59.0483 212.454 59.517C211.692 59.9858 210.799 60.2202 209.777 60.2202ZM209.784 58.4375C210.447 58.4375 210.996 58.2623 211.431 57.9119C211.867 57.5616 212.189 57.0952 212.397 56.5128C212.61 55.9304 212.717 55.2888 212.717 54.5881C212.717 53.892 212.61 53.2528 212.397 52.6705C212.189 52.0833 211.867 51.6122 211.431 51.2571C210.996 50.902 210.447 50.7244 209.784 50.7244C209.116 50.7244 208.562 50.902 208.122 51.2571C207.686 51.6122 207.362 52.0833 207.149 52.6705C206.94 53.2528 206.836 53.892 206.836 54.5881C206.836 55.2888 206.94 55.9304 207.149 56.5128C207.362 57.0952 207.686 57.5616 208.122 57.9119C208.562 58.2623 209.116 58.4375 209.784 58.4375ZM222.325 49.0909V50.7955H216.366V49.0909H222.325ZM217.964 46.4773H220.087V56.7969C220.087 57.2088 220.149 57.5189 220.272 57.7273C220.395 57.9309 220.554 58.0705 220.748 58.1463C220.947 58.2173 221.162 58.2528 221.394 58.2528C221.565 58.2528 221.714 58.241 221.842 58.2173C221.969 58.1937 222.069 58.1747 222.14 58.1605L222.523 59.9148C222.4 59.9621 222.225 60.0095 221.998 60.0568C221.771 60.1089 221.487 60.1373 221.146 60.142C220.587 60.1515 220.066 60.0521 219.583 59.8438C219.1 59.6354 218.71 59.3134 218.411 58.8778C218.113 58.4422 217.964 57.8954 217.964 57.2372V46.4773ZM227.032 53.5227V60H224.908V45.4545H227.003V50.8665H227.138C227.394 50.2794 227.784 49.813 228.31 49.4673C228.836 49.1217 229.522 48.9489 230.37 48.9489C231.118 48.9489 231.771 49.1027 232.33 49.4105C232.893 49.7183 233.329 50.1776 233.637 50.7884C233.949 51.3944 234.105 52.152 234.105 53.0611V60H231.982V53.3168C231.982 52.5166 231.776 51.8963 231.364 51.456C230.952 51.0109 230.379 50.7884 229.645 50.7884C229.143 50.7884 228.694 50.8949 228.296 51.108C227.903 51.321 227.593 51.6335 227.365 52.0455C227.143 52.4527 227.032 52.9451 227.032 53.5227ZM241.641 60.2202C240.566 60.2202 239.641 59.9905 238.864 59.5312C238.092 59.0672 237.496 58.4162 237.074 57.5781C236.658 56.7353 236.449 55.7481 236.449 54.6165C236.449 53.4991 236.658 52.5142 237.074 51.6619C237.496 50.8097 238.083 50.1444 238.836 49.6662C239.593 49.188 240.479 48.9489 241.492 48.9489C242.107 48.9489 242.704 49.0507 243.282 49.2543C243.859 49.4579 244.378 49.7775 244.837 50.2131C245.296 50.6487 245.658 51.2145 245.924 51.9105C246.189 52.6018 246.321 53.4422 246.321 54.4318V55.1847H237.65V53.5938H244.24C244.24 53.035 244.127 52.5402 243.9 52.1094C243.672 51.6738 243.353 51.3305 242.941 51.0795C242.533 50.8286 242.055 50.7031 241.506 50.7031C240.909 50.7031 240.389 50.8499 239.944 51.1435C239.503 51.4323 239.162 51.8111 238.921 52.2798C238.684 52.7438 238.566 53.2481 238.566 53.7926V55.0355C238.566 55.7647 238.694 56.3849 238.949 56.8963C239.21 57.4077 239.572 57.7983 240.036 58.0682C240.5 58.3333 241.042 58.4659 241.662 58.4659C242.065 58.4659 242.432 58.4091 242.763 58.2955C243.095 58.1771 243.381 58.0019 243.623 57.7699C243.864 57.5379 244.049 57.2514 244.176 56.9105L246.186 57.2727C246.025 57.8646 245.737 58.383 245.32 58.8281C244.908 59.2685 244.39 59.6117 243.765 59.858C243.144 60.0994 242.436 60.2202 241.641 60.2202ZM256.852 51.7543L254.928 52.0952C254.847 51.849 254.719 51.6146 254.544 51.392C254.374 51.1695 254.142 50.9872 253.848 50.8452C253.554 50.7031 253.188 50.6321 252.747 50.6321C252.146 50.6321 251.644 50.767 251.241 51.0369C250.839 51.3021 250.638 51.6454 250.638 52.0668C250.638 52.4313 250.773 52.7249 251.043 52.9474C251.313 53.17 251.748 53.3523 252.349 53.4943L254.082 53.892C255.086 54.1241 255.834 54.4815 256.327 54.9645C256.819 55.4474 257.065 56.0748 257.065 56.8466C257.065 57.5 256.876 58.0824 256.497 58.5938C256.123 59.1004 255.6 59.4981 254.928 59.7869C254.26 60.0758 253.486 60.2202 252.605 60.2202C251.384 60.2202 250.387 59.9598 249.615 59.4389C248.843 58.9134 248.37 58.1676 248.195 57.2017L250.247 56.8892C250.375 57.4242 250.638 57.8291 251.036 58.1037C251.433 58.3736 251.952 58.5085 252.591 58.5085C253.287 58.5085 253.843 58.3641 254.26 58.0753C254.677 57.7817 254.885 57.4242 254.885 57.0028C254.885 56.6619 254.757 56.3755 254.501 56.1435C254.25 55.9115 253.865 55.7363 253.344 55.6179L251.497 55.2131C250.479 54.9811 249.726 54.6117 249.239 54.1051C248.756 53.5985 248.514 52.9569 248.514 52.1804C248.514 51.5365 248.694 50.973 249.054 50.4901C249.414 50.0071 249.911 49.6307 250.545 49.3608C251.18 49.0862 251.907 48.9489 252.726 48.9489C253.905 48.9489 254.833 49.2045 255.51 49.7159C256.187 50.2225 256.634 50.902 256.852 51.7543ZM269.786 49.0909V50.7955H263.827V49.0909H269.786ZM265.425 46.4773H267.548V56.7969C267.548 57.2088 267.61 57.5189 267.733 57.7273C267.856 57.9309 268.015 58.0705 268.209 58.1463C268.408 58.2173 268.623 58.2528 268.855 58.2528C269.026 58.2528 269.175 58.241 269.303 58.2173C269.43 58.1937 269.53 58.1747 269.601 58.1605L269.984 59.9148C269.861 59.9621 269.686 60.0095 269.459 60.0568C269.232 60.1089 268.947 60.1373 268.607 60.142C268.048 60.1515 267.527 60.0521 267.044 59.8438C266.561 59.6354 266.17 59.3134 265.872 58.8778C265.574 58.4422 265.425 57.8954 265.425 57.2372V46.4773ZM276.613 60.2202C275.59 60.2202 274.697 59.9858 273.935 59.517C273.173 59.0483 272.581 58.3925 272.159 57.5497C271.738 56.7069 271.527 55.7221 271.527 54.5952C271.527 53.4635 271.738 52.474 272.159 51.6264C272.581 50.7789 273.173 50.1207 273.935 49.652C274.697 49.1832 275.59 48.9489 276.613 48.9489C277.635 48.9489 278.528 49.1832 279.29 49.652C280.052 50.1207 280.644 50.7789 281.066 51.6264C281.487 52.474 281.698 53.4635 281.698 54.5952C281.698 55.7221 281.487 56.7069 281.066 57.5497C280.644 58.3925 280.052 59.0483 279.29 59.517C278.528 59.9858 277.635 60.2202 276.613 60.2202ZM276.62 58.4375C277.283 58.4375 277.832 58.2623 278.267 57.9119C278.703 57.5616 279.025 57.0952 279.233 56.5128C279.446 55.9304 279.553 55.2888 279.553 54.5881C279.553 53.892 279.446 53.2528 279.233 52.6705C279.025 52.0833 278.703 51.6122 278.267 51.2571C277.832 50.902 277.283 50.7244 276.62 50.7244C275.952 50.7244 275.398 50.902 274.958 51.2571C274.522 51.6122 274.198 52.0833 273.985 52.6705C273.776 53.2528 273.672 53.892 273.672 54.5881C273.672 55.2888 273.776 55.9304 273.985 56.5128C274.198 57.0952 274.522 57.5616 274.958 57.9119C275.398 58.2623 275.952 58.4375 276.62 58.4375ZM294.453 49.0909V50.7955H288.495V49.0909H294.453ZM290.093 46.4773H292.216V56.7969C292.216 57.2088 292.278 57.5189 292.401 57.7273C292.524 57.9309 292.683 58.0705 292.877 58.1463C293.076 58.2173 293.291 58.2528 293.523 58.2528C293.694 58.2528 293.843 58.241 293.971 58.2173C294.098 58.1937 294.198 58.1747 294.269 58.1605L294.652 59.9148C294.529 59.9621 294.354 60.0095 294.127 60.0568C293.9 60.1089 293.615 60.1373 293.275 60.142C292.716 60.1515 292.195 60.0521 291.712 59.8438C291.229 59.6354 290.838 59.3134 290.54 58.8778C290.242 58.4422 290.093 57.8954 290.093 57.2372V46.4773ZM299.161 53.5227V60H297.037V45.4545H299.132V50.8665H299.267C299.523 50.2794 299.913 49.813 300.439 49.4673C300.964 49.1217 301.651 48.9489 302.499 48.9489C303.247 48.9489 303.9 49.1027 304.459 49.4105C305.022 49.7183 305.458 50.1776 305.766 50.7884C306.078 51.3944 306.234 52.152 306.234 53.0611V60H304.111V53.3168C304.111 52.5166 303.905 51.8963 303.493 51.456C303.081 51.0109 302.508 50.7884 301.774 50.7884C301.272 50.7884 300.822 50.8949 300.425 51.108C300.032 51.321 299.722 51.6335 299.494 52.0455C299.272 52.4527 299.161 52.9451 299.161 53.5227ZM313.77 60.2202C312.695 60.2202 311.769 59.9905 310.993 59.5312C310.221 59.0672 309.625 58.4162 309.203 57.5781C308.786 56.7353 308.578 55.7481 308.578 54.6165C308.578 53.4991 308.786 52.5142 309.203 51.6619C309.625 50.8097 310.212 50.1444 310.964 49.6662C311.722 49.188 312.607 48.9489 313.621 48.9489C314.236 48.9489 314.833 49.0507 315.411 49.2543C315.988 49.4579 316.507 49.7775 316.966 50.2131C317.425 50.6487 317.787 51.2145 318.053 51.9105C318.318 52.6018 318.45 53.4422 318.45 54.4318V55.1847H309.778V53.5938H316.369C316.369 53.035 316.256 52.5402 316.028 52.1094C315.801 51.6738 315.482 51.3305 315.07 51.0795C314.662 50.8286 314.184 50.7031 313.635 50.7031C313.038 50.7031 312.518 50.8499 312.072 51.1435C311.632 51.4323 311.291 51.8111 311.05 52.2798C310.813 52.7438 310.695 53.2481 310.695 53.7926V55.0355C310.695 55.7647 310.822 56.3849 311.078 56.8963C311.339 57.4077 311.701 57.7983 312.165 58.0682C312.629 58.3333 313.171 58.4659 313.791 58.4659C314.194 58.4659 314.561 58.4091 314.892 58.2955C315.223 58.1771 315.51 58.0019 315.751 57.7699C315.993 57.5379 316.178 57.2514 316.305 56.9105L318.315 57.2727C318.154 57.8646 317.866 58.383 317.449 58.8281C317.037 59.2685 316.518 59.6117 315.893 59.858C315.273 60.0994 314.565 60.2202 313.77 60.2202ZM326.099 60V49.0909H328.138V50.8665H328.273C328.5 50.2652 328.872 49.7964 329.388 49.4602C329.904 49.1193 330.522 48.9489 331.241 48.9489C331.971 48.9489 332.581 49.1193 333.074 49.4602C333.571 49.8011 333.938 50.2699 334.175 50.8665H334.288C334.549 50.2841 334.963 49.8201 335.531 49.4744C336.099 49.1241 336.777 48.9489 337.562 48.9489C338.552 48.9489 339.359 49.259 339.984 49.8793C340.614 50.4995 340.929 51.4347 340.929 52.6847V60H338.805V52.8835C338.805 52.1449 338.604 51.6098 338.202 51.2784C337.799 50.947 337.319 50.7812 336.76 50.7812C336.069 50.7812 335.531 50.9943 335.148 51.4205C334.764 51.8419 334.572 52.384 334.572 53.0469V60H332.456V52.7486C332.456 52.1567 332.271 51.6809 331.902 51.321C331.533 50.9612 331.052 50.7812 330.46 50.7812C330.058 50.7812 329.686 50.8878 329.345 51.1009C329.009 51.3092 328.737 51.6004 328.528 51.9744C328.325 52.3485 328.223 52.7817 328.223 53.2741V60H326.099ZM348.37 60.2202C347.348 60.2202 346.455 59.9858 345.693 59.517C344.931 59.0483 344.339 58.3925 343.917 57.5497C343.496 56.7069 343.285 55.7221 343.285 54.5952C343.285 53.4635 343.496 52.474 343.917 51.6264C344.339 50.7789 344.931 50.1207 345.693 49.652C346.455 49.1832 347.348 48.9489 348.37 48.9489C349.393 48.9489 350.286 49.1832 351.048 49.652C351.81 50.1207 352.402 50.7789 352.824 51.6264C353.245 52.474 353.456 53.4635 353.456 54.5952C353.456 55.7221 353.245 56.7069 352.824 57.5497C352.402 58.3925 351.81 59.0483 351.048 59.517C350.286 59.9858 349.393 60.2202 348.37 60.2202ZM348.377 58.4375C349.04 58.4375 349.59 58.2623 350.025 57.9119C350.461 57.5616 350.783 57.0952 350.991 56.5128C351.204 55.9304 351.311 55.2888 351.311 54.5881C351.311 53.892 351.204 53.2528 350.991 52.6705C350.783 52.0833 350.461 51.6122 350.025 51.2571C349.59 50.902 349.04 50.7244 348.377 50.7244C347.71 50.7244 347.156 50.902 346.716 51.2571C346.28 51.6122 345.956 52.0833 345.743 52.6705C345.534 53.2528 345.43 53.892 345.43 54.5881C345.43 55.2888 345.534 55.9304 345.743 56.5128C345.956 57.0952 346.28 57.5616 346.716 57.9119C347.156 58.2623 347.71 58.4375 348.377 58.4375ZM364.001 51.7543L362.076 52.0952C361.996 51.849 361.868 51.6146 361.692 51.392C361.522 51.1695 361.29 50.9872 360.996 50.8452C360.703 50.7031 360.336 50.6321 359.896 50.6321C359.294 50.6321 358.792 50.767 358.39 51.0369C357.987 51.3021 357.786 51.6454 357.786 52.0668C357.786 52.4313 357.921 52.7249 358.191 52.9474C358.461 53.17 358.897 53.3523 359.498 53.4943L361.231 53.892C362.235 54.1241 362.983 54.4815 363.475 54.9645C363.968 55.4474 364.214 56.0748 364.214 56.8466C364.214 57.5 364.024 58.0824 363.646 58.5938C363.272 59.1004 362.748 59.4981 362.076 59.7869C361.408 60.0758 360.634 60.2202 359.754 60.2202C358.532 60.2202 357.535 59.9598 356.763 59.4389C355.992 58.9134 355.518 58.1676 355.343 57.2017L357.396 56.8892C357.523 57.4242 357.786 57.8291 358.184 58.1037C358.582 58.3736 359.1 58.5085 359.739 58.5085C360.435 58.5085 360.992 58.3641 361.408 58.0753C361.825 57.7817 362.033 57.4242 362.033 57.0028C362.033 56.6619 361.906 56.3755 361.65 56.1435C361.399 55.9115 361.013 55.7363 360.492 55.6179L358.646 55.2131C357.628 54.9811 356.875 54.6117 356.387 54.1051C355.904 53.5985 355.663 52.9569 355.663 52.1804C355.663 51.5365 355.843 50.973 356.202 50.4901C356.562 50.0071 357.059 49.6307 357.694 49.3608C358.328 49.0862 359.055 48.9489 359.874 48.9489C361.053 48.9489 361.981 49.2045 362.658 49.7159C363.335 50.2225 363.783 50.902 364.001 51.7543ZM371.641 49.0909V50.7955H365.682V49.0909H371.641ZM367.28 46.4773H369.404V56.7969C369.404 57.2088 369.465 57.5189 369.588 57.7273C369.712 57.9309 369.87 58.0705 370.064 58.1463C370.263 58.2173 370.479 58.2528 370.711 58.2528C370.881 58.2528 371.03 58.241 371.158 58.2173C371.286 58.1937 371.385 58.1747 371.456 58.1605L371.84 59.9148C371.717 59.9621 371.542 60.0095 371.314 60.0568C371.087 60.1089 370.803 60.1373 370.462 60.142C369.903 60.1515 369.382 60.0521 368.9 59.8438C368.417 59.6354 368.026 59.3134 367.728 58.8778C367.429 58.4422 367.28 57.8954 367.28 57.2372V46.4773ZM376.312 55.8168V55.6818C376.322 54.8011 376.41 54.1004 376.575 53.5795C376.746 53.0587 376.987 52.6373 377.3 52.3153C377.612 51.9934 377.989 51.6998 378.429 51.4347C378.713 51.2547 378.969 51.0535 379.196 50.831C379.423 50.6084 379.603 50.3527 379.736 50.0639C379.868 49.7751 379.935 49.4555 379.935 49.1051C379.935 48.6837 379.835 48.3191 379.636 48.0114C379.438 47.7036 379.172 47.4669 378.841 47.3011C378.514 47.1307 378.15 47.0455 377.747 47.0455C377.383 47.0455 377.035 47.1212 376.703 47.2727C376.372 47.4242 376.097 47.661 375.879 47.983C375.661 48.3002 375.536 48.7098 375.503 49.2116H373.344C373.377 48.3594 373.592 47.6397 373.99 47.0526C374.388 46.4607 374.913 46.0133 375.567 45.7102C376.225 45.4072 376.952 45.2557 377.747 45.2557C378.618 45.2557 379.381 45.419 380.034 45.7457C380.688 46.0677 381.194 46.5199 381.554 47.1023C381.919 47.6799 382.101 48.3546 382.101 49.1264C382.101 49.6567 382.018 50.1349 381.852 50.5611C381.687 50.9825 381.45 51.3589 381.142 51.6903C380.839 52.0218 380.474 52.3153 380.048 52.571C379.646 52.822 379.319 53.0824 379.068 53.3523C378.822 53.6222 378.642 53.9418 378.528 54.3111C378.415 54.6804 378.353 55.1373 378.344 55.6818V55.8168H376.312ZM377.385 60.1349C376.997 60.1349 376.663 59.9976 376.384 59.723C376.104 59.4437 375.964 59.1075 375.964 58.7145C375.964 58.3262 376.104 57.9948 376.384 57.7202C376.663 57.4408 376.997 57.3011 377.385 57.3011C377.768 57.3011 378.1 57.4408 378.379 57.7202C378.663 57.9948 378.805 58.3262 378.805 58.7145C378.805 58.9749 378.739 59.214 378.607 59.4318C378.479 59.6449 378.308 59.8153 378.095 59.9432C377.882 60.071 377.645 60.1349 377.385 60.1349Z" fill="black"/>
</svg>
