<svg width="365" height="272" viewBox="0 0 365 272" fill="none" xmlns="http://www.w3.org/2000/svg">
<g filter="url(#filter0_d_581_5918)">
<rect x="6" y="2" width="353" height="260" rx="8" fill="#F3F3F3"/>
<path d="M145.252 35V32.7841L150.43 27.9901C150.87 27.5639 151.239 27.1804 151.538 26.8395C151.841 26.4986 152.07 26.1648 152.226 25.8381C152.383 25.5066 152.461 25.1491 152.461 24.7656C152.461 24.3395 152.364 23.9725 152.17 23.6648C151.976 23.3523 151.71 23.1132 151.374 22.9474C151.038 22.777 150.657 22.6918 150.231 22.6918C149.786 22.6918 149.397 22.7817 149.066 22.9616C148.735 23.1416 148.479 23.3996 148.299 23.7358C148.119 24.072 148.029 24.4721 148.029 24.9361H145.11C145.11 23.9844 145.325 23.1581 145.756 22.4574C146.187 21.7566 146.791 21.2145 147.567 20.831C148.344 20.4474 149.239 20.2557 150.252 20.2557C151.294 20.2557 152.2 20.4403 152.972 20.8097C153.749 21.1742 154.352 21.6809 154.783 22.3295C155.214 22.9782 155.43 23.7216 155.43 24.5597C155.43 25.1089 155.321 25.651 155.103 26.1861C154.89 26.7211 154.509 27.3153 153.959 27.9688C153.41 28.6174 152.636 29.3963 151.637 30.3054L149.513 32.3864V32.4858H155.621V35H145.252ZM164.278 20.4545V35H161.203V23.3736H161.117L157.786 25.4616V22.7344L161.387 20.4545H164.278ZM168.85 35.1847C168.382 35.1847 167.979 35.0189 167.643 34.6875C167.312 34.3513 167.146 33.9489 167.146 33.4801C167.146 33.0161 167.312 32.6184 167.643 32.2869C167.979 31.9555 168.382 31.7898 168.85 31.7898C169.305 31.7898 169.703 31.9555 170.044 32.2869C170.385 32.6184 170.555 33.0161 170.555 33.4801C170.555 33.7926 170.475 34.0791 170.314 34.3395C170.157 34.5952 169.951 34.8011 169.696 34.9574C169.44 35.1089 169.158 35.1847 168.85 35.1847ZM178.228 35.3196C177.006 35.3149 175.955 35.0142 175.074 34.4176C174.198 33.821 173.524 32.9569 173.05 31.8253C172.581 30.6937 172.349 29.3324 172.354 27.7415C172.354 26.1553 172.589 24.8035 173.057 23.6861C173.531 22.5687 174.206 21.7187 175.081 21.1364C175.962 20.5492 177.011 20.2557 178.228 20.2557C179.445 20.2557 180.491 20.5492 181.367 21.1364C182.248 21.7235 182.925 22.5758 183.398 23.6932C183.872 24.8059 184.106 26.1553 184.101 27.7415C184.101 29.3371 183.865 30.7008 183.391 31.8324C182.922 32.964 182.25 33.8281 181.374 34.4247C180.498 35.0213 179.449 35.3196 178.228 35.3196ZM178.228 32.7699C179.061 32.7699 179.726 32.3509 180.224 31.5128C180.721 30.6747 180.967 29.4176 180.962 27.7415C180.962 26.6383 180.849 25.7197 180.621 24.9858C180.399 24.2519 180.081 23.7003 179.67 23.331C179.262 22.9616 178.782 22.777 178.228 22.777C177.399 22.777 176.736 23.1913 176.239 24.0199C175.742 24.8485 175.491 26.089 175.486 27.7415C175.486 28.8589 175.598 29.7917 175.82 30.5398C176.047 31.2831 176.367 31.8419 176.779 32.2159C177.191 32.5852 177.674 32.7699 178.228 32.7699ZM191.771 35.1989C190.71 35.1989 189.765 35.0166 188.937 34.652C188.113 34.2827 187.462 33.776 186.984 33.1321C186.51 32.4834 186.266 31.7353 186.252 30.8878H189.349C189.368 31.2429 189.484 31.5554 189.697 31.8253C189.915 32.0904 190.203 32.2964 190.563 32.4432C190.923 32.59 191.328 32.6634 191.778 32.6634C192.246 32.6634 192.661 32.5805 193.021 32.4148C193.38 32.2491 193.662 32.0194 193.866 31.7259C194.069 31.4323 194.171 31.0937 194.171 30.7102C194.171 30.322 194.062 29.9787 193.844 29.6804C193.631 29.3774 193.324 29.1406 192.921 28.9702C192.523 28.7997 192.05 28.7145 191.501 28.7145H190.144V26.456H191.501C191.965 26.456 192.374 26.3755 192.729 26.2145C193.089 26.0535 193.369 25.831 193.568 25.5469C193.766 25.258 193.866 24.9219 193.866 24.5384C193.866 24.1738 193.778 23.8542 193.603 23.5795C193.433 23.3002 193.191 23.0824 192.879 22.9261C192.571 22.7699 192.211 22.6918 191.799 22.6918C191.382 22.6918 191.001 22.7675 190.656 22.919C190.31 23.0658 190.033 23.2765 189.825 23.5511C189.616 23.8258 189.505 24.1477 189.491 24.517H186.543C186.558 23.679 186.797 22.9403 187.261 22.3011C187.725 21.6619 188.35 21.1624 189.136 20.8026C189.926 20.438 190.819 20.2557 191.813 20.2557C192.817 20.2557 193.695 20.438 194.448 20.8026C195.201 21.1671 195.786 21.6596 196.202 22.2798C196.624 22.8954 196.832 23.5866 196.827 24.3537C196.832 25.1681 196.579 25.8475 196.068 26.392C195.561 26.9366 194.9 27.2822 194.086 27.429V27.5426C195.156 27.6799 195.97 28.0516 196.529 28.6577C197.093 29.259 197.372 30.0118 197.367 30.9162C197.372 31.7448 197.133 32.4811 196.65 33.125C196.172 33.7689 195.511 34.2756 194.668 34.6449C193.826 35.0142 192.86 35.1989 191.771 35.1989ZM199.458 32.4432V30.0213L205.53 20.4545H207.618V23.8068H206.382L202.554 29.8651V29.9787H211.183V32.4432H199.458ZM206.439 35V31.7045L206.496 30.6321V20.4545H209.38V35H206.439ZM219.163 24.0909V26.3636H212.594V24.0909H219.163ZM214.085 21.4773H217.111V31.6477C217.111 31.9271 217.154 32.1449 217.239 32.3011C217.324 32.4527 217.442 32.5592 217.594 32.6207C217.75 32.6823 217.93 32.7131 218.134 32.7131C218.276 32.7131 218.418 32.7012 218.56 32.6776C218.702 32.6491 218.811 32.6278 218.886 32.6136L219.362 34.8651C219.211 34.9124 218.998 34.9669 218.723 35.0284C218.448 35.0947 218.115 35.1349 217.722 35.1491C216.993 35.1776 216.353 35.0805 215.804 34.858C215.26 34.6354 214.836 34.2898 214.533 33.821C214.23 33.3523 214.081 32.7604 214.085 32.0455V21.4773Z" fill="black"/>
<path d="M136.846 48.4922H134.046C133.995 48.13 133.89 47.8082 133.733 47.527C133.575 47.2415 133.373 46.9986 133.125 46.7983C132.878 46.598 132.593 46.4446 132.269 46.3381C131.949 46.2315 131.602 46.1783 131.227 46.1783C130.549 46.1783 129.959 46.3466 129.456 46.6832C128.954 47.0156 128.564 47.5014 128.287 48.1406C128.01 48.7756 127.871 49.5469 127.871 50.4545C127.871 51.3878 128.01 52.1719 128.287 52.8068C128.568 53.4418 128.96 53.9212 129.463 54.245C129.966 54.5689 130.547 54.7308 131.208 54.7308C131.579 54.7308 131.922 54.6818 132.237 54.5838C132.557 54.4858 132.84 54.343 133.087 54.1555C133.334 53.9638 133.539 53.7315 133.701 53.4588C133.867 53.1861 133.982 52.875 134.046 52.5256L136.846 52.5384C136.773 53.1392 136.592 53.7188 136.302 54.277C136.017 54.831 135.631 55.3274 135.145 55.7663C134.664 56.201 134.089 56.5462 133.419 56.8018C132.755 57.0533 132.003 57.179 131.163 57.179C129.995 57.179 128.951 56.9148 128.031 56.3864C127.115 55.858 126.39 55.093 125.858 54.0916C125.329 53.0902 125.065 51.8778 125.065 50.4545C125.065 49.027 125.334 47.8125 125.87 46.8111C126.407 45.8097 127.136 45.0469 128.057 44.5227C128.977 43.9943 130.013 43.7301 131.163 43.7301C131.922 43.7301 132.625 43.8366 133.272 44.0497C133.924 44.2628 134.502 44.5739 135.005 44.983C135.508 45.3878 135.917 45.8842 136.232 46.4723C136.552 47.0604 136.756 47.7337 136.846 48.4922ZM150.96 50.4545C150.96 51.8821 150.69 53.0966 150.148 54.098C149.611 55.0994 148.879 55.8643 147.95 56.3928C147.025 56.9169 145.985 57.179 144.83 57.179C143.667 57.179 142.623 56.9148 141.698 56.3864C140.773 55.858 140.043 55.093 139.506 54.0916C138.969 53.0902 138.7 51.8778 138.7 50.4545C138.7 49.027 138.969 47.8125 139.506 46.8111C140.043 45.8097 140.773 45.0469 141.698 44.5227C142.623 43.9943 143.667 43.7301 144.83 43.7301C145.985 43.7301 147.025 43.9943 147.95 44.5227C148.879 45.0469 149.611 45.8097 150.148 46.8111C150.69 47.8125 150.96 49.027 150.96 50.4545ZM148.154 50.4545C148.154 49.5298 148.016 48.75 147.739 48.1151C147.466 47.4801 147.08 46.9986 146.582 46.6705C146.083 46.3423 145.499 46.1783 144.83 46.1783C144.161 46.1783 143.577 46.3423 143.079 46.6705C142.58 46.9986 142.192 47.4801 141.915 48.1151C141.643 48.75 141.506 49.5298 141.506 50.4545C141.506 51.3793 141.643 52.1591 141.915 52.794C142.192 53.429 142.58 53.9105 143.079 54.2386C143.577 54.5668 144.161 54.7308 144.83 54.7308C145.499 54.7308 146.083 54.5668 146.582 54.2386C147.08 53.9105 147.466 53.429 147.739 52.794C148.016 52.1591 148.154 51.3793 148.154 50.4545ZM153.034 57V55.0057L157.694 50.6911C158.09 50.3075 158.422 49.9624 158.691 49.6555C158.963 49.3487 159.17 49.0483 159.311 48.7543C159.451 48.456 159.522 48.1342 159.522 47.7891C159.522 47.4055 159.434 47.0753 159.26 46.7983C159.085 46.517 158.846 46.3018 158.544 46.1527C158.241 45.9993 157.898 45.9226 157.515 45.9226C157.114 45.9226 156.765 46.0036 156.466 46.1655C156.168 46.3274 155.938 46.5597 155.776 46.8622C155.614 47.1648 155.533 47.5249 155.533 47.9425H152.906C152.906 47.0859 153.1 46.3423 153.488 45.7116C153.875 45.081 154.419 44.593 155.118 44.2479C155.816 43.9027 156.622 43.7301 157.534 43.7301C158.471 43.7301 159.287 43.8963 159.982 44.2287C160.681 44.5568 161.224 45.0128 161.612 45.5966C162 46.1804 162.194 46.8494 162.194 47.6037C162.194 48.098 162.096 48.5859 161.9 49.0675C161.708 49.549 161.365 50.0838 160.87 50.6719C160.376 51.2557 159.679 51.9567 158.78 52.7749L156.869 54.6477V54.7372H162.366V57H153.034ZM168.972 57.1918C167.962 57.1918 167.092 56.9872 166.364 56.5781C165.639 56.1648 165.081 55.581 164.689 54.8267C164.297 54.0682 164.101 53.1712 164.101 52.1357C164.101 51.1257 164.297 50.2393 164.689 49.4766C165.081 48.7138 165.633 48.1193 166.344 47.6932C167.06 47.267 167.9 47.054 168.863 47.054C169.511 47.054 170.114 47.1584 170.672 47.3672C171.234 47.5717 171.724 47.8807 172.142 48.294C172.564 48.7074 172.892 49.2273 173.126 49.8537C173.361 50.4759 173.478 51.2045 173.478 52.0398V52.7876H165.188V51.1001H170.915C170.915 50.7081 170.83 50.3608 170.659 50.0582C170.489 49.7557 170.252 49.5192 169.95 49.3487C169.651 49.174 169.304 49.0866 168.908 49.0866C168.494 49.0866 168.128 49.1825 167.808 49.3743C167.493 49.5618 167.246 49.8153 167.067 50.1349C166.888 50.4503 166.796 50.8018 166.792 51.1896V52.794C166.792 53.2798 166.881 53.6996 167.06 54.0533C167.244 54.407 167.501 54.6797 167.834 54.8714C168.166 55.0632 168.56 55.1591 169.016 55.1591C169.319 55.1591 169.596 55.1165 169.847 55.0312C170.099 54.946 170.314 54.8182 170.493 54.6477C170.672 54.4773 170.808 54.2685 170.902 54.0213L173.42 54.1875C173.293 54.7926 173.031 55.321 172.634 55.7727C172.242 56.2202 171.735 56.5696 171.113 56.821C170.495 57.0682 169.781 57.1918 168.972 57.1918ZM186.774 47.674C186.723 47.1584 186.503 46.7578 186.115 46.4723C185.728 46.1868 185.201 46.044 184.537 46.044C184.085 46.044 183.703 46.108 183.392 46.2358C183.081 46.3594 182.843 46.532 182.676 46.7536C182.514 46.9751 182.434 47.2266 182.434 47.5078C182.425 47.7422 182.474 47.9467 182.581 48.1214C182.691 48.2962 182.843 48.4474 183.034 48.5753C183.226 48.6989 183.448 48.8075 183.699 48.9013C183.951 48.9908 184.219 49.0675 184.505 49.1314L185.681 49.4126C186.252 49.5405 186.776 49.7109 187.253 49.924C187.73 50.1371 188.144 50.3991 188.493 50.7102C188.843 51.0213 189.113 51.3878 189.305 51.8097C189.501 52.2315 189.601 52.7152 189.605 53.2607C189.601 54.0618 189.397 54.7564 188.992 55.3445C188.591 55.9283 188.012 56.3821 187.253 56.706C186.499 57.0256 185.589 57.1854 184.524 57.1854C183.467 57.1854 182.546 57.0234 181.762 56.6996C180.983 56.3757 180.373 55.8963 179.934 55.2614C179.5 54.6222 179.272 53.8317 179.25 52.8899H181.929C181.958 53.3288 182.084 53.6953 182.306 53.9893C182.532 54.2791 182.832 54.4986 183.207 54.6477C183.586 54.7926 184.014 54.8651 184.492 54.8651C184.961 54.8651 185.367 54.7969 185.713 54.6605C186.062 54.5241 186.333 54.3345 186.524 54.0916C186.716 53.8487 186.812 53.5696 186.812 53.2543C186.812 52.9602 186.725 52.7131 186.55 52.5128C186.38 52.3125 186.128 52.142 185.796 52.0014C185.468 51.8608 185.065 51.733 184.588 51.6179L183.162 51.2599C182.059 50.9915 181.187 50.5717 180.548 50.0007C179.909 49.4297 179.591 48.6605 179.595 47.6932C179.591 46.9006 179.802 46.2081 180.228 45.6158C180.659 45.0234 181.249 44.5611 181.999 44.2287C182.749 43.8963 183.601 43.7301 184.556 43.7301C185.527 43.7301 186.375 43.8963 187.1 44.2287C187.828 44.5611 188.395 45.0234 188.8 45.6158C189.205 46.2081 189.414 46.8942 189.426 47.674H186.774ZM193.525 57H190.559L195.078 43.9091H198.645L203.157 57H200.192L196.912 46.9006H196.81L193.525 57ZM193.339 51.8544H200.345V54.0149H193.339V51.8544ZM205.563 43.9091L208.727 53.8551H208.849L212.019 43.9091H215.088L210.575 57H207.008L202.489 43.9091H205.563ZM216.763 57V43.9091H225.584V46.1911H219.531V49.3104H225.13V51.5923H219.531V54.718H225.61V57H216.763ZM232.525 57H227.885V43.9091H232.564C233.88 43.9091 235.014 44.1712 235.964 44.6953C236.914 45.2152 237.645 45.9631 238.157 46.9389C238.672 47.9148 238.93 49.0824 238.93 50.4418C238.93 51.8054 238.672 52.9773 238.157 53.9574C237.645 54.9375 236.91 55.6896 235.951 56.2138C234.997 56.7379 233.855 57 232.525 57ZM230.652 54.6286H232.41C233.228 54.6286 233.917 54.4837 234.475 54.1939C235.037 53.8999 235.459 53.446 235.74 52.8324C236.026 52.2145 236.169 51.4176 236.169 50.4418C236.169 49.4744 236.026 48.6839 235.74 48.0703C235.459 47.4567 235.039 47.005 234.481 46.7152C233.923 46.4254 233.235 46.2805 232.417 46.2805H230.652V54.6286Z" fill="#6C6C6C"/>
<rect x="16.9689" y="205.167" width="331.031" height="40" rx="20" fill="#E97661"/>
<path d="M121.406 219.985V230.167H119.253V219.985H121.406ZM125.355 225.753V230.167H123.237V222.531H125.255V223.878H125.345C125.514 223.434 125.797 223.083 126.195 222.824C126.593 222.562 127.075 222.431 127.642 222.431C128.172 222.431 128.634 222.547 129.029 222.779C129.423 223.012 129.73 223.343 129.949 223.774C130.167 224.201 130.277 224.712 130.277 225.305V230.167H128.159V225.683C128.162 225.216 128.043 224.851 127.801 224.589C127.559 224.324 127.226 224.191 126.802 224.191C126.516 224.191 126.265 224.253 126.046 224.375C125.83 224.498 125.661 224.677 125.539 224.912C125.419 225.144 125.358 225.424 125.355 225.753ZM138.892 222.531L136.222 230.167H133.836L131.166 222.531H133.403L134.989 227.995H135.069L136.65 222.531H138.892ZM140.076 230.167V222.531H142.193V230.167H140.076ZM141.139 221.547C140.825 221.547 140.554 221.442 140.329 221.233C140.107 221.021 139.996 220.768 139.996 220.473C139.996 220.181 140.107 219.931 140.329 219.722C140.554 219.51 140.825 219.404 141.139 219.404C141.454 219.404 141.723 219.51 141.945 219.722C142.17 219.931 142.283 220.181 142.283 220.473C142.283 220.768 142.17 221.021 141.945 221.233C141.723 221.442 141.454 221.547 141.139 221.547ZM148.052 222.531V224.122H143.453V222.531H148.052ZM144.497 220.701H146.615V227.821C146.615 228.016 146.645 228.169 146.705 228.278C146.764 228.384 146.847 228.459 146.953 228.502C147.062 228.545 147.188 228.566 147.331 228.566C147.43 228.566 147.53 228.558 147.629 228.542C147.729 228.522 147.805 228.507 147.858 228.497L148.191 230.073C148.085 230.106 147.936 230.144 147.744 230.187C147.551 230.234 147.318 230.262 147.043 230.272C146.532 230.292 146.085 230.224 145.7 230.068C145.319 229.912 145.022 229.67 144.81 229.342C144.598 229.014 144.494 228.6 144.497 228.099V220.701ZM152.93 230.316C152.144 230.316 151.468 230.157 150.901 229.839C150.338 229.518 149.903 229.064 149.599 228.477C149.294 227.887 149.141 227.189 149.141 226.384C149.141 225.598 149.294 224.909 149.599 224.316C149.903 223.722 150.333 223.26 150.886 222.929C151.443 222.597 152.096 222.431 152.845 222.431C153.349 222.431 153.818 222.513 154.252 222.675C154.689 222.834 155.071 223.074 155.395 223.396C155.724 223.717 155.979 224.122 156.161 224.609C156.343 225.093 156.434 225.66 156.434 226.309V226.891H149.986V225.579H154.441C154.441 225.274 154.375 225.003 154.242 224.768C154.109 224.533 153.925 224.349 153.69 224.216C153.458 224.08 153.188 224.012 152.88 224.012C152.558 224.012 152.273 224.087 152.025 224.236C151.779 224.382 151.587 224.579 151.448 224.828C151.309 225.073 151.238 225.346 151.234 225.648V226.896C151.234 227.274 151.304 227.6 151.443 227.875C151.586 228.15 151.786 228.363 152.045 228.512C152.303 228.661 152.61 228.735 152.964 228.735C153.2 228.735 153.415 228.702 153.611 228.636C153.806 228.57 153.974 228.47 154.113 228.338C154.252 228.205 154.358 228.043 154.431 227.851L156.39 227.98C156.29 228.45 156.086 228.861 155.778 229.213C155.473 229.561 155.079 229.833 154.595 230.028C154.114 230.22 153.559 230.316 152.93 230.316ZM161.257 230.167V222.531H163.275V223.878H163.365C163.524 223.431 163.789 223.078 164.16 222.819C164.531 222.561 164.976 222.431 165.493 222.431C166.016 222.431 166.462 222.562 166.83 222.824C167.198 223.083 167.443 223.434 167.566 223.878H167.645C167.801 223.441 168.083 223.091 168.49 222.829C168.901 222.564 169.387 222.431 169.947 222.431C170.66 222.431 171.238 222.659 171.682 223.113C172.13 223.563 172.353 224.203 172.353 225.032V230.167H170.24V225.449C170.24 225.025 170.128 224.707 169.902 224.495C169.677 224.283 169.395 224.177 169.057 224.177C168.673 224.177 168.373 224.299 168.157 224.544C167.942 224.786 167.834 225.106 167.834 225.504V230.167H165.781V225.404C165.781 225.03 165.673 224.732 165.458 224.51C165.246 224.288 164.966 224.177 164.618 224.177C164.382 224.177 164.17 224.236 163.981 224.355C163.796 224.471 163.648 224.636 163.539 224.848C163.429 225.056 163.375 225.302 163.375 225.583V230.167H161.257ZM177.577 230.316C176.804 230.316 176.137 230.152 175.573 229.824C175.013 229.493 174.58 229.032 174.275 228.442C173.971 227.849 173.818 227.161 173.818 226.379C173.818 225.59 173.971 224.901 174.275 224.311C174.58 223.717 175.013 223.257 175.573 222.929C176.137 222.597 176.804 222.431 177.577 222.431C178.349 222.431 179.015 222.597 179.575 222.929C180.139 223.257 180.573 223.717 180.878 224.311C181.183 224.901 181.335 225.59 181.335 226.379C181.335 227.161 181.183 227.849 180.878 228.442C180.573 229.032 180.139 229.493 179.575 229.824C179.015 230.152 178.349 230.316 177.577 230.316ZM177.587 228.676C177.938 228.676 178.231 228.576 178.467 228.378C178.702 228.175 178.879 227.9 178.999 227.552C179.121 227.204 179.182 226.808 179.182 226.364C179.182 225.92 179.121 225.524 178.999 225.176C178.879 224.828 178.702 224.553 178.467 224.351C178.231 224.148 177.938 224.047 177.587 224.047C177.232 224.047 176.934 224.148 176.692 224.351C176.453 224.553 176.272 224.828 176.15 225.176C176.03 225.524 175.971 225.92 175.971 226.364C175.971 226.808 176.03 227.204 176.15 227.552C176.272 227.9 176.453 228.175 176.692 228.378C176.934 228.576 177.232 228.676 177.587 228.676ZM182.812 230.167V222.531H184.866V223.863H184.945C185.084 223.389 185.318 223.031 185.646 222.789C185.974 222.544 186.352 222.422 186.78 222.422C186.886 222.422 187 222.428 187.123 222.441C187.245 222.455 187.353 222.473 187.446 222.496V224.375C187.346 224.346 187.209 224.319 187.033 224.296C186.858 224.273 186.697 224.261 186.551 224.261C186.239 224.261 185.961 224.329 185.716 224.465C185.474 224.597 185.282 224.783 185.139 225.022C185 225.26 184.93 225.535 184.93 225.847V230.167H182.812ZM191.765 230.316C190.98 230.316 190.304 230.157 189.737 229.839C189.174 229.518 188.739 229.064 188.434 228.477C188.13 227.887 187.977 227.189 187.977 226.384C187.977 225.598 188.13 224.909 188.434 224.316C188.739 223.722 189.169 223.26 189.722 222.929C190.279 222.597 190.932 222.431 191.681 222.431C192.185 222.431 192.654 222.513 193.088 222.675C193.525 222.834 193.907 223.074 194.231 223.396C194.559 223.717 194.815 224.122 194.997 224.609C195.179 225.093 195.27 225.66 195.27 226.309V226.891H188.822V225.579H193.277C193.277 225.274 193.211 225.003 193.078 224.768C192.945 224.533 192.761 224.349 192.526 224.216C192.294 224.08 192.024 224.012 191.716 224.012C191.394 224.012 191.109 224.087 190.861 224.236C190.615 224.382 190.423 224.579 190.284 224.828C190.145 225.073 190.073 225.346 190.07 225.648V226.896C190.07 227.274 190.14 227.6 190.279 227.875C190.421 228.15 190.622 228.363 190.881 228.512C191.139 228.661 191.446 228.735 191.8 228.735C192.036 228.735 192.251 228.702 192.447 228.636C192.642 228.57 192.809 228.47 192.949 228.338C193.088 228.205 193.194 228.043 193.267 227.851L195.226 227.98C195.126 228.45 194.922 228.861 194.614 229.213C194.309 229.561 193.915 229.833 193.431 230.028C192.95 230.22 192.395 230.316 191.765 230.316ZM200.093 233.031V222.531H202.181V223.814H202.275C202.368 223.608 202.502 223.399 202.678 223.187C202.857 222.972 203.089 222.793 203.374 222.65C203.662 222.504 204.02 222.431 204.448 222.431C205.005 222.431 205.518 222.577 205.989 222.869C206.46 223.157 206.836 223.593 207.118 224.177C207.399 224.757 207.54 225.484 207.54 226.359C207.54 227.211 207.403 227.93 207.128 228.517C206.856 229.1 206.485 229.543 206.014 229.844C205.547 230.142 205.023 230.292 204.443 230.292C204.032 230.292 203.682 230.224 203.394 230.088C203.109 229.952 202.875 229.781 202.693 229.576C202.511 229.367 202.371 229.156 202.275 228.944H202.211V233.031H200.093ZM202.166 226.349C202.166 226.803 202.229 227.199 202.355 227.537C202.481 227.875 202.663 228.139 202.902 228.328C203.14 228.513 203.43 228.606 203.772 228.606C204.116 228.606 204.408 228.512 204.647 228.323C204.885 228.131 205.066 227.865 205.189 227.527C205.315 227.186 205.378 226.793 205.378 226.349C205.378 225.908 205.316 225.521 205.194 225.186C205.071 224.851 204.89 224.589 204.652 224.4C204.413 224.211 204.12 224.117 203.772 224.117C203.427 224.117 203.135 224.208 202.897 224.39C202.661 224.573 202.481 224.831 202.355 225.166C202.229 225.501 202.166 225.895 202.166 226.349ZM212.532 230.316C211.747 230.316 211.071 230.157 210.504 229.839C209.94 229.518 209.506 229.064 209.201 228.477C208.896 227.887 208.744 227.189 208.744 226.384C208.744 225.598 208.896 224.909 209.201 224.316C209.506 223.722 209.935 223.26 210.489 222.929C211.046 222.597 211.699 222.431 212.448 222.431C212.952 222.431 213.421 222.513 213.855 222.675C214.292 222.834 214.673 223.074 214.998 223.396C215.326 223.717 215.581 224.122 215.764 224.609C215.946 225.093 216.037 225.66 216.037 226.309V226.891H209.589V225.579H214.044C214.044 225.274 213.977 225.003 213.845 224.768C213.712 224.533 213.528 224.349 213.293 224.216C213.061 224.08 212.791 224.012 212.483 224.012C212.161 224.012 211.876 224.087 211.627 224.236C211.382 224.382 211.19 224.579 211.051 224.828C210.912 225.073 210.84 225.346 210.837 225.648V226.896C210.837 227.274 210.907 227.6 211.046 227.875C211.188 228.15 211.389 228.363 211.647 228.512C211.906 228.661 212.212 228.735 212.567 228.735C212.802 228.735 213.018 228.702 213.213 228.636C213.409 228.57 213.576 228.47 213.715 228.338C213.855 228.205 213.961 228.043 214.034 227.851L215.992 227.98C215.893 228.45 215.689 228.861 215.381 229.213C215.076 229.561 214.682 229.833 214.198 230.028C213.717 230.22 213.162 230.316 212.532 230.316ZM220.97 230.316C220.197 230.316 219.529 230.152 218.966 229.824C218.406 229.493 217.973 229.032 217.668 228.442C217.364 227.849 217.211 227.161 217.211 226.379C217.211 225.59 217.364 224.901 217.668 224.311C217.973 223.717 218.406 223.257 218.966 222.929C219.529 222.597 220.197 222.431 220.97 222.431C221.742 222.431 222.408 222.597 222.968 222.929C223.532 223.257 223.966 223.717 224.271 224.311C224.576 224.901 224.728 225.59 224.728 226.379C224.728 227.161 224.576 227.849 224.271 228.442C223.966 229.032 223.532 229.493 222.968 229.824C222.408 230.152 221.742 230.316 220.97 230.316ZM220.98 228.676C221.331 228.676 221.624 228.576 221.86 228.378C222.095 228.175 222.272 227.9 222.391 227.552C222.514 227.204 222.575 226.808 222.575 226.364C222.575 225.92 222.514 225.524 222.391 225.176C222.272 224.828 222.095 224.553 221.86 224.351C221.624 224.148 221.331 224.047 220.98 224.047C220.625 224.047 220.327 224.148 220.085 224.351C219.846 224.553 219.665 224.828 219.543 225.176C219.423 225.524 219.364 225.92 219.364 226.364C219.364 226.808 219.423 227.204 219.543 227.552C219.665 227.9 219.846 228.175 220.085 228.378C220.327 228.576 220.625 228.676 220.98 228.676ZM226.205 233.031V222.531H228.293V223.814H228.388C228.481 223.608 228.615 223.399 228.79 223.187C228.969 222.972 229.201 222.793 229.487 222.65C229.775 222.504 230.133 222.431 230.56 222.431C231.117 222.431 231.631 222.577 232.102 222.869C232.572 223.157 232.948 223.593 233.23 224.177C233.512 224.757 233.653 225.484 233.653 226.359C233.653 227.211 233.515 227.93 233.24 228.517C232.968 229.1 232.597 229.543 232.126 229.844C231.659 230.142 231.135 230.292 230.555 230.292C230.144 230.292 229.795 230.224 229.506 230.088C229.221 229.952 228.988 229.781 228.805 229.576C228.623 229.367 228.484 229.156 228.388 228.944H228.323V233.031H226.205ZM228.278 226.349C228.278 226.803 228.341 227.199 228.467 227.537C228.593 227.875 228.776 228.139 229.014 228.328C229.253 228.513 229.543 228.606 229.884 228.606C230.229 228.606 230.521 228.512 230.759 228.323C230.998 228.131 231.179 227.865 231.301 227.527C231.427 227.186 231.49 226.793 231.49 226.349C231.49 225.908 231.429 225.521 231.306 225.186C231.183 224.851 231.003 224.589 230.764 224.4C230.526 224.211 230.232 224.117 229.884 224.117C229.54 224.117 229.248 224.208 229.009 224.39C228.774 224.573 228.593 224.831 228.467 225.166C228.341 225.501 228.278 225.895 228.278 226.349ZM237.283 219.985V230.167H235.165V219.985H237.283ZM242.559 230.316C241.774 230.316 241.098 230.157 240.531 229.839C239.967 229.518 239.533 229.064 239.228 228.477C238.923 227.887 238.771 227.189 238.771 226.384C238.771 225.598 238.923 224.909 239.228 224.316C239.533 223.722 239.962 223.26 240.516 222.929C241.073 222.597 241.726 222.431 242.475 222.431C242.978 222.431 243.447 222.513 243.882 222.675C244.319 222.834 244.7 223.074 245.025 223.396C245.353 223.717 245.608 224.122 245.791 224.609C245.973 225.093 246.064 225.66 246.064 226.309V226.891H239.616V225.579H244.071C244.071 225.274 244.004 225.003 243.872 224.768C243.739 224.533 243.555 224.349 243.32 224.216C243.088 224.08 242.818 224.012 242.509 224.012C242.188 224.012 241.903 224.087 241.654 224.236C241.409 224.382 241.217 224.579 241.078 224.828C240.938 225.073 240.867 225.346 240.864 225.648V226.896C240.864 227.274 240.933 227.6 241.073 227.875C241.215 228.15 241.416 228.363 241.674 228.512C241.933 228.661 242.239 228.735 242.594 228.735C242.829 228.735 243.045 228.702 243.24 228.636C243.436 228.57 243.603 228.47 243.742 228.338C243.882 228.205 243.988 228.043 244.061 227.851L246.019 227.98C245.92 228.45 245.716 228.861 245.408 229.213C245.103 229.561 244.709 229.833 244.225 230.028C243.744 230.22 243.189 230.316 242.559 230.316Z" fill="#0F0F0F"/>
<rect x="348" y="84.9483" width="17.1033" height="331" rx="8.55167" transform="rotate(90 348 84.9483)" fill="#F1DAD6"/>
<path d="M229.93 84.9483L229.93 102.052L25.5517 102.052C20.8288 102.052 17 98.2229 17 93.5V93.5C17 88.777 20.8288 84.9483 25.5517 84.9483L229.93 84.9483Z" fill="#E97661"/>
<path d="M22.0631 125.224C21.208 125.22 20.4722 125.01 19.8558 124.592C19.2426 124.175 18.7703 123.57 18.4388 122.778C18.1107 121.986 17.9483 121.033 17.9516 119.919C17.9516 118.809 18.1157 117.862 18.4438 117.08C18.7753 116.298 19.2476 115.703 19.8607 115.295C20.4772 114.884 21.2113 114.679 22.0631 114.679C22.9149 114.679 23.6474 114.884 24.2606 115.295C24.8771 115.706 25.351 116.303 25.6825 117.085C26.0139 117.864 26.178 118.809 26.1746 119.919C26.1746 121.036 26.0089 121.991 25.6775 122.783C25.3494 123.575 24.8787 124.18 24.2656 124.597C23.6524 125.015 22.9183 125.224 22.0631 125.224ZM22.0631 123.439C22.6465 123.439 23.1121 123.146 23.4602 122.559C23.8082 121.972 23.9805 121.092 23.9772 119.919C23.9772 119.147 23.8977 118.504 23.7386 117.99C23.5828 117.476 23.3607 117.09 23.0724 116.832C22.7873 116.573 22.4509 116.444 22.0631 116.444C21.4831 116.444 21.0191 116.734 20.6711 117.314C20.3231 117.894 20.1474 118.762 20.1441 119.919C20.1441 120.701 20.222 121.354 20.3778 121.878C20.5369 122.398 20.7606 122.789 21.0489 123.051C21.3373 123.31 21.6754 123.439 22.0631 123.439Z" fill="#0F0F0F"/>
<path d="M22.0631 125.224C21.208 125.22 20.4722 125.01 19.8558 124.592C19.2426 124.175 18.7703 123.57 18.4388 122.778C18.1107 121.986 17.9483 121.033 17.9516 119.919C17.9516 118.809 18.1157 117.862 18.4438 117.08C18.7753 116.298 19.2476 115.703 19.8607 115.295C20.4772 114.884 21.2113 114.679 22.0631 114.679C22.9149 114.679 23.6474 114.884 24.2606 115.295C24.8771 115.706 25.351 116.303 25.6825 117.085C26.0139 117.864 26.178 118.809 26.1746 119.919C26.1746 121.036 26.0089 121.991 25.6775 122.783C25.3494 123.575 24.8787 124.18 24.2656 124.597C23.6524 125.015 22.9183 125.224 22.0631 125.224ZM22.0631 123.439C22.6465 123.439 23.1121 123.146 23.4602 122.559C23.8082 121.972 23.9805 121.092 23.9772 119.919C23.9772 119.147 23.8977 118.504 23.7386 117.99C23.5828 117.476 23.3607 117.09 23.0724 116.832C22.7873 116.573 22.4509 116.444 22.0631 116.444C21.4831 116.444 21.0191 116.734 20.6711 117.314C20.3231 117.894 20.1474 118.762 20.1441 119.919C20.1441 120.701 20.222 121.354 20.3778 121.878C20.5369 122.398 20.7606 122.789 21.0489 123.051C21.3373 123.31 21.6754 123.439 22.0631 123.439Z" fill="#0F0F0F"/>
<path d="M230.664 125V123.449L234.288 120.093C234.596 119.795 234.855 119.526 235.064 119.288C235.276 119.049 235.437 118.815 235.546 118.587C235.655 118.355 235.71 118.104 235.71 117.836C235.71 117.538 235.642 117.281 235.506 117.065C235.37 116.847 235.185 116.679 234.949 116.563C234.714 116.444 234.447 116.384 234.149 116.384C233.837 116.384 233.566 116.447 233.334 116.573C233.102 116.699 232.923 116.88 232.797 117.115C232.671 117.35 232.608 117.63 232.608 117.955H230.564C230.564 117.289 230.715 116.711 231.017 116.22C231.318 115.73 231.741 115.35 232.285 115.082C232.828 114.813 233.455 114.679 234.164 114.679C234.893 114.679 235.528 114.808 236.068 115.067C236.612 115.322 237.034 115.677 237.336 116.131C237.637 116.585 237.788 117.105 237.788 117.692C237.788 118.076 237.712 118.456 237.559 118.83C237.41 119.205 237.144 119.621 236.759 120.078C236.375 120.532 235.833 121.077 235.133 121.714L233.647 123.17V123.24H237.922V125H230.664ZM244.012 114.818V125H241.859V116.862H241.8L239.468 118.323V116.414L241.988 114.818H244.012ZM250.614 117.364V118.955H246.015V117.364H250.614ZM247.059 115.534H249.177V122.653C249.177 122.849 249.207 123.001 249.266 123.111C249.326 123.217 249.409 123.291 249.515 123.335C249.624 123.378 249.75 123.399 249.893 123.399C249.992 123.399 250.092 123.391 250.191 123.374C250.29 123.354 250.367 123.339 250.42 123.33L250.753 124.906C250.647 124.939 250.498 124.977 250.305 125.02C250.113 125.066 249.879 125.094 249.604 125.104C249.094 125.124 248.646 125.056 248.262 124.901C247.881 124.745 247.584 124.503 247.372 124.175C247.16 123.847 247.056 123.432 247.059 122.932V115.534Z" fill="#0F0F0F"/>
<path d="M236 85L236 102L232 102L232 85L236 85Z" fill="#E97661"/>
<path d="M336.288 106.4C334.58 106.4 333.195 107.785 333.195 109.493C333.195 111.202 334.58 112.587 336.288 112.587C337.996 112.587 339.381 111.202 339.381 109.493C339.381 108.673 339.056 107.886 338.476 107.306C338.476 107.306 338.476 107.306 338.476 107.306M336.288 106.4L338.476 107.306M336.288 106.4C337.108 106.4 337.895 106.726 338.476 107.306M336.288 106.4L338.476 107.306" fill="#E97661" stroke="black" stroke-width="0.8"/>
<path d="M342.167 119.166L338.349 129.539H334.227L330.41 119.167C330.464 118.051 331.093 117.017 332.132 116.246C333.19 115.463 334.655 114.969 336.288 114.969C337.88 114.969 339.392 115.448 340.493 116.28C341.539 117.072 342.114 118.107 342.167 119.166Z" fill="#E97661" stroke="black" stroke-width="0.8"/>
<path d="M332.288 106.4C330.58 106.4 329.195 107.785 329.195 109.493C329.195 111.202 330.58 112.587 332.288 112.587C333.996 112.587 335.381 111.202 335.381 109.493C335.381 108.673 335.056 107.886 334.476 107.306C334.476 107.306 334.476 107.306 334.476 107.306M332.288 106.4L334.476 107.306M332.288 106.4C333.108 106.4 333.895 106.726 334.476 107.306M332.288 106.4L334.476 107.306" fill="#F3F3F3" stroke="black" stroke-width="0.8"/>
<path d="M338.167 119.166L334.349 129.539H330.227L326.41 119.167C326.464 118.051 327.093 117.017 328.132 116.246C329.19 115.463 330.655 114.969 332.288 114.969C333.88 114.969 335.392 115.448 336.493 116.28C337.539 117.072 338.114 118.107 338.167 119.166Z" fill="#F3F3F3" stroke="black" stroke-width="0.8"/>
<path d="M17.7942 176.405V174.854L21.4185 171.498C21.7267 171.2 21.9853 170.931 22.1941 170.693C22.4062 170.454 22.5669 170.221 22.6763 169.992C22.7857 169.76 22.8404 169.51 22.8404 169.241C22.8404 168.943 22.7724 168.686 22.6365 168.471C22.5007 168.252 22.3151 168.084 22.0797 167.968C21.8444 167.849 21.5776 167.789 21.2793 167.789C20.9677 167.789 20.696 167.852 20.464 167.978C20.232 168.104 20.053 168.285 19.927 168.52C19.8011 168.756 19.7381 169.036 19.7381 169.36H17.6948C17.6948 168.694 17.8456 168.116 18.1472 167.625C18.4488 167.135 18.8714 166.755 19.415 166.487C19.9585 166.218 20.5849 166.084 21.2942 166.084C22.0234 166.084 22.6581 166.213 23.1983 166.472C23.7419 166.727 24.1645 167.082 24.4661 167.536C24.7677 167.99 24.9185 168.51 24.9185 169.097C24.9185 169.481 24.8423 169.861 24.6898 170.235C24.5407 170.61 24.2739 171.026 23.8894 171.483C23.5049 171.937 22.963 172.483 22.2637 173.119L20.7772 174.576V174.645H25.0527V176.405H17.7942ZM30.7048 176.629C29.8497 176.626 29.1139 176.415 28.4974 175.998C27.8842 175.58 27.4119 174.975 27.0805 174.183C26.7523 173.391 26.5899 172.438 26.5933 171.324C26.5933 170.214 26.7573 169.268 27.0854 168.485C27.4169 167.703 27.8892 167.108 28.5023 166.701C29.1188 166.29 29.853 166.084 30.7048 166.084C31.5566 166.084 32.289 166.29 32.9022 166.701C33.5187 167.112 33.9926 167.708 34.3241 168.49C34.6555 169.269 34.8196 170.214 34.8163 171.324C34.8163 172.441 34.6506 173.396 34.3191 174.188C33.991 174.98 33.5203 175.585 32.9072 176.002C32.294 176.42 31.5599 176.629 30.7048 176.629ZM30.7048 174.844C31.2881 174.844 31.7538 174.551 32.1018 173.964C32.4498 173.377 32.6221 172.498 32.6188 171.324C32.6188 170.552 32.5393 169.909 32.3802 169.395C32.2244 168.882 32.0023 168.495 31.714 168.237C31.429 167.978 31.0925 167.849 30.7048 167.849C30.1247 167.849 29.6607 168.139 29.3127 168.719C28.9647 169.299 28.789 170.168 28.7857 171.324C28.7857 172.106 28.8636 172.759 29.0194 173.283C29.1785 173.803 29.4022 174.194 29.6906 174.456C29.9789 174.715 30.317 174.844 30.7048 174.844ZM40.7373 179.269V168.769H41.8708V169.982H42.0101C42.0962 169.849 42.2155 169.68 42.368 169.475C42.5238 169.266 42.7459 169.08 43.0342 168.918C43.3259 168.752 43.7203 168.669 44.2174 168.669C44.8604 168.669 45.4272 168.83 45.9177 169.152C46.4083 169.473 46.7911 169.929 47.0662 170.519C47.3413 171.109 47.4788 171.805 47.4788 172.607C47.4788 173.416 47.3413 174.117 47.0662 174.71C46.7911 175.3 46.4099 175.757 45.9227 176.082C45.4355 176.404 44.8737 176.564 44.2373 176.564C43.7468 176.564 43.354 176.483 43.0591 176.321C42.7641 176.155 42.537 175.968 42.378 175.759C42.2189 175.547 42.0962 175.371 42.0101 175.232H41.9106V179.269H40.7373ZM41.8907 172.587C41.8907 173.164 41.9753 173.672 42.1443 174.113C42.3133 174.551 42.5602 174.894 42.8851 175.142C43.2099 175.388 43.6076 175.51 44.0782 175.51C44.5688 175.51 44.9781 175.381 45.3062 175.123C45.6377 174.861 45.8862 174.509 46.052 174.069C46.221 173.624 46.3055 173.131 46.3055 172.587C46.3055 172.05 46.2226 171.566 46.0569 171.135C45.8945 170.701 45.6476 170.358 45.3162 170.106C44.988 169.851 44.5754 169.723 44.0782 169.723C43.601 169.723 43.1999 169.844 42.8751 170.086C42.5503 170.325 42.305 170.66 42.1393 171.091C41.9736 171.518 41.8907 172.017 41.8907 172.587ZM52.5703 176.564C51.8345 176.564 51.1998 176.402 50.6662 176.077C50.1359 175.749 49.7265 175.292 49.4382 174.705C49.1531 174.115 49.0106 173.429 49.0106 172.647C49.0106 171.864 49.1531 171.175 49.4382 170.578C49.7265 169.979 50.1276 169.511 50.6413 169.177C51.1584 168.838 51.7616 168.669 52.451 168.669C52.8487 168.669 53.2414 168.736 53.6292 168.868C54.017 169.001 54.37 169.216 54.6882 169.515C55.0064 169.81 55.2599 170.201 55.4488 170.688C55.6378 171.175 55.7322 171.775 55.7322 172.488V172.985H49.8459V171.971H54.539C54.539 171.54 54.4529 171.155 54.2805 170.817C54.1115 170.479 53.8695 170.212 53.5547 170.017C53.2431 169.821 52.8752 169.723 52.451 169.723C51.9836 169.723 51.5793 169.839 51.2379 170.071C50.8998 170.3 50.6396 170.598 50.4574 170.966C50.2751 171.334 50.1839 171.729 50.1839 172.15V172.826C50.1839 173.402 50.2834 173.891 50.4822 174.292C50.6844 174.69 50.9645 174.993 51.3224 175.202C51.6804 175.408 52.0963 175.51 52.5703 175.51C52.8785 175.51 53.1569 175.467 53.4055 175.381C53.6574 175.292 53.8745 175.159 54.0568 174.983C54.2391 174.804 54.3799 174.582 54.4794 174.317L55.6129 174.635C55.4936 175.02 55.2931 175.358 55.0113 175.65C54.7296 175.938 54.3816 176.163 53.9673 176.326C53.553 176.485 53.0873 176.564 52.5703 176.564ZM60.7193 176.564C60.0299 176.564 59.425 176.4 58.9047 176.072C58.3876 175.744 57.9833 175.285 57.6916 174.695C57.4032 174.105 57.2591 173.416 57.2591 172.627C57.2591 171.831 57.4032 171.137 57.6916 170.544C57.9833 169.95 58.3876 169.49 58.9047 169.162C59.425 168.833 60.0299 168.669 60.7193 168.669C61.4087 168.669 62.0119 168.833 62.5289 169.162C63.0493 169.49 63.4537 169.95 63.742 170.544C64.0337 171.137 64.1795 171.831 64.1795 172.627C64.1795 173.416 64.0337 174.105 63.742 174.695C63.4537 175.285 63.0493 175.744 62.5289 176.072C62.0119 176.4 61.4087 176.564 60.7193 176.564ZM60.7193 175.51C61.243 175.51 61.6738 175.376 62.0119 175.108C62.35 174.839 62.6002 174.486 62.7626 174.049C62.925 173.611 63.0062 173.137 63.0062 172.627C63.0062 172.116 62.925 171.641 62.7626 171.2C62.6002 170.759 62.35 170.403 62.0119 170.131C61.6738 169.859 61.243 169.723 60.7193 169.723C60.1956 169.723 59.7647 169.859 59.4267 170.131C59.0886 170.403 58.8384 170.759 58.676 171.2C58.5136 171.641 58.4324 172.116 58.4324 172.627C58.4324 173.137 58.5136 173.611 58.676 174.049C58.8384 174.486 59.0886 174.839 59.4267 175.108C59.7647 175.376 60.1956 175.51 60.7193 175.51ZM66.0705 179.269V168.769H67.2041V169.982H67.3433C67.4294 169.849 67.5487 169.68 67.7012 169.475C67.857 169.266 68.0791 169.08 68.3674 168.918C68.6591 168.752 69.0535 168.669 69.5506 168.669C70.1936 168.669 70.7604 168.83 71.2509 169.152C71.7415 169.473 72.1243 169.929 72.3994 170.519C72.6745 171.109 72.812 171.805 72.812 172.607C72.812 173.416 72.6745 174.117 72.3994 174.71C72.1243 175.3 71.7431 175.757 71.2559 176.082C70.7687 176.404 70.2069 176.564 69.5705 176.564C69.08 176.564 68.6872 176.483 68.3923 176.321C68.0973 176.155 67.8702 175.968 67.7112 175.759C67.5521 175.547 67.4294 175.371 67.3433 175.232H67.2438V179.269H66.0705ZM67.2239 172.587C67.2239 173.164 67.3085 173.672 67.4775 174.113C67.6465 174.551 67.8934 174.894 68.2183 175.142C68.5431 175.388 68.9408 175.51 69.4114 175.51C69.902 175.51 70.3113 175.381 70.6394 175.123C70.9709 174.861 71.2194 174.509 71.3852 174.069C71.5542 173.624 71.6387 173.131 71.6387 172.587C71.6387 172.05 71.5559 171.566 71.3901 171.135C71.2277 170.701 70.9808 170.358 70.6494 170.106C70.3212 169.851 69.9086 169.723 69.4114 169.723C68.9342 169.723 68.5331 169.844 68.2083 170.086C67.8835 170.325 67.6382 170.66 67.4725 171.091C67.3068 171.518 67.2239 172.017 67.2239 172.587ZM75.8751 166.223V176.405H74.7018V166.223H75.8751ZM81.3258 176.564C80.59 176.564 79.9552 176.402 79.4216 176.077C78.8913 175.749 78.482 175.292 78.1936 174.705C77.9086 174.115 77.7661 173.429 77.7661 172.647C77.7661 171.864 77.9086 171.175 78.1936 170.578C78.482 169.979 78.883 169.511 79.3968 169.177C79.9138 168.838 80.517 168.669 81.2064 168.669C81.6042 168.669 81.9969 168.736 82.3847 168.868C82.7725 169.001 83.1255 169.216 83.4436 169.515C83.7618 169.81 84.0154 170.201 84.2043 170.688C84.3932 171.175 84.4877 171.775 84.4877 172.488V172.985H78.6013V171.971H83.2945C83.2945 171.54 83.2083 171.155 83.036 170.817C82.8669 170.479 82.625 170.212 82.3101 170.017C81.9986 169.821 81.6307 169.723 81.2064 169.723C80.7391 169.723 80.3347 169.839 79.9934 170.071C79.6553 170.3 79.3951 170.598 79.2128 170.966C79.0305 171.334 78.9394 171.729 78.9394 172.15V172.826C78.9394 173.402 79.0388 173.891 79.2377 174.292C79.4399 174.69 79.7199 174.993 80.0779 175.202C80.4358 175.408 80.8518 175.51 81.3258 175.51C81.634 175.51 81.9124 175.467 82.161 175.381C82.4129 175.292 82.63 175.159 82.8123 174.983C82.9945 174.804 83.1354 174.582 83.2348 174.317L84.3684 174.635C84.249 175.02 84.0485 175.358 83.7668 175.65C83.4851 175.938 83.1371 176.163 82.7228 176.326C82.3085 176.485 81.8428 176.564 81.3258 176.564ZM90.41 176.405V168.769H91.5833V176.405H90.41ZM91.0066 167.496C90.7779 167.496 90.5807 167.418 90.415 167.262C90.2526 167.107 90.1713 166.919 90.1713 166.701C90.1713 166.482 90.2526 166.295 90.415 166.139C90.5807 165.983 90.7779 165.905 91.0066 165.905C91.2353 165.905 91.4308 165.983 91.5932 166.139C91.7589 166.295 91.8418 166.482 91.8418 166.701C91.8418 166.919 91.7589 167.107 91.5932 167.262C91.4308 167.418 91.2353 167.496 91.0066 167.496ZM95.0055 171.811V176.405H93.8322V168.769H94.9658V169.962H95.0652C95.2442 169.574 95.516 169.263 95.8805 169.027C96.2451 168.789 96.7158 168.669 97.2925 168.669C97.8095 168.669 98.2619 168.775 98.6497 168.988C99.0375 169.196 99.3391 169.515 99.5545 169.942C99.77 170.366 99.8777 170.903 99.8777 171.553V176.405H98.7044V171.632C98.7044 171.033 98.5486 170.565 98.2371 170.23C97.9255 169.892 97.498 169.723 96.9544 169.723C96.5799 169.723 96.2451 169.805 95.9501 169.967C95.6585 170.129 95.4281 170.366 95.2591 170.678C95.0901 170.989 95.0055 171.367 95.0055 171.811ZM106.159 176.405V168.769H107.293V169.962H107.392C107.551 169.554 107.808 169.238 108.163 169.012C108.517 168.784 108.943 168.669 109.44 168.669C109.944 168.669 110.364 168.784 110.698 169.012C111.036 169.238 111.3 169.554 111.489 169.962H111.568C111.764 169.568 112.057 169.254 112.448 169.022C112.839 168.787 113.308 168.669 113.855 168.669C114.538 168.669 115.096 168.883 115.531 169.311C115.965 169.735 116.182 170.396 116.182 171.294V176.405H115.009V171.294C115.009 170.731 114.855 170.328 114.546 170.086C114.238 169.844 113.875 169.723 113.458 169.723C112.921 169.723 112.505 169.886 112.21 170.211C111.915 170.532 111.767 170.94 111.767 171.434V176.405H110.574V171.175C110.574 170.741 110.433 170.391 110.151 170.126C109.87 169.858 109.507 169.723 109.063 169.723C108.758 169.723 108.473 169.805 108.208 169.967C107.946 170.129 107.734 170.355 107.571 170.643C107.412 170.928 107.333 171.258 107.333 171.632V176.405H106.159ZM118.909 179.269C118.711 179.269 118.533 179.252 118.377 179.219C118.222 179.189 118.114 179.159 118.054 179.13L118.353 178.096C118.638 178.168 118.89 178.195 119.108 178.175C119.327 178.155 119.521 178.057 119.69 177.882C119.862 177.709 120.02 177.429 120.162 177.042L120.381 176.445L117.557 168.769H118.83L120.938 174.854H121.017L123.125 168.769H124.398L121.157 177.519C121.011 177.913 120.83 178.24 120.615 178.498C120.399 178.76 120.149 178.954 119.864 179.08C119.582 179.206 119.264 179.269 118.909 179.269ZM133.186 176.564C132.471 176.564 131.854 176.395 131.337 176.057C130.82 175.719 130.422 175.253 130.144 174.66C129.865 174.067 129.726 173.389 129.726 172.627C129.726 171.851 129.869 171.167 130.154 170.574C130.442 169.977 130.843 169.511 131.357 169.177C131.874 168.838 132.477 168.669 133.167 168.669C133.704 168.669 134.187 168.769 134.618 168.968C135.049 169.167 135.402 169.445 135.677 169.803C135.952 170.161 136.123 170.578 136.189 171.056H135.016C134.927 170.708 134.728 170.4 134.419 170.131C134.115 169.859 133.704 169.723 133.186 169.723C132.729 169.723 132.328 169.843 131.983 170.081C131.642 170.317 131.375 170.65 131.183 171.081C130.994 171.508 130.9 172.01 130.9 172.587C130.9 173.177 130.992 173.691 131.178 174.128C131.367 174.566 131.632 174.905 131.973 175.147C132.318 175.389 132.722 175.51 133.186 175.51C133.491 175.51 133.768 175.457 134.017 175.351C134.265 175.245 134.476 175.093 134.648 174.894C134.82 174.695 134.943 174.456 135.016 174.178H136.189C136.123 174.629 135.959 175.035 135.697 175.396C135.439 175.754 135.096 176.039 134.668 176.251C134.244 176.46 133.75 176.564 133.186 176.564ZM141.107 176.564C140.417 176.564 139.813 176.4 139.292 176.072C138.775 175.744 138.371 175.285 138.079 174.695C137.791 174.105 137.647 173.416 137.647 172.627C137.647 171.831 137.791 171.137 138.079 170.544C138.371 169.95 138.775 169.49 139.292 169.162C139.813 168.833 140.417 168.669 141.107 168.669C141.796 168.669 142.399 168.833 142.916 169.162C143.437 169.49 143.841 169.95 144.13 170.544C144.421 171.137 144.567 171.831 144.567 172.627C144.567 173.416 144.421 174.105 144.13 174.695C143.841 175.285 143.437 175.744 142.916 176.072C142.399 176.4 141.796 176.564 141.107 176.564ZM141.107 175.51C141.63 175.51 142.061 175.376 142.399 175.108C142.737 174.839 142.988 174.486 143.15 174.049C143.313 173.611 143.394 173.137 143.394 172.627C143.394 172.116 143.313 171.641 143.15 171.2C142.988 170.759 142.737 170.403 142.399 170.131C142.061 169.859 141.63 169.723 141.107 169.723C140.583 169.723 140.152 169.859 139.814 170.131C139.476 170.403 139.226 170.759 139.063 171.2C138.901 171.641 138.82 172.116 138.82 172.627C138.82 173.137 138.901 173.611 139.063 174.049C139.226 174.486 139.476 174.839 139.814 175.108C140.152 175.376 140.583 175.51 141.107 175.51ZM146.458 176.405V168.769H147.592V169.962H147.691C147.85 169.554 148.107 169.238 148.462 169.012C148.816 168.784 149.242 168.669 149.739 168.669C150.243 168.669 150.662 168.784 150.997 169.012C151.335 169.238 151.599 169.554 151.788 169.962H151.867C152.063 169.568 152.356 169.254 152.747 169.022C153.138 168.787 153.607 168.669 154.154 168.669C154.837 168.669 155.395 168.883 155.829 169.311C156.264 169.735 156.481 170.396 156.481 171.294V176.405H155.307V171.294C155.307 170.731 155.153 170.328 154.845 170.086C154.537 169.844 154.174 169.723 153.756 169.723C153.219 169.723 152.803 169.886 152.508 170.211C152.213 170.532 152.066 170.94 152.066 171.434V176.405H150.873V171.175C150.873 170.741 150.732 170.391 150.45 170.126C150.168 169.858 149.806 169.723 149.361 169.723C149.057 169.723 148.771 169.805 148.506 169.967C148.244 170.129 148.032 170.355 147.87 170.643C147.711 170.928 147.631 171.258 147.631 171.632V176.405H146.458ZM158.726 176.405V168.769H159.86V169.962H159.959C160.118 169.554 160.375 169.238 160.73 169.012C161.084 168.784 161.51 168.669 162.007 168.669C162.511 168.669 162.93 168.784 163.265 169.012C163.603 169.238 163.867 169.554 164.056 169.962H164.135C164.331 169.568 164.624 169.254 165.015 169.022C165.406 168.787 165.875 168.669 166.422 168.669C167.105 168.669 167.663 168.883 168.097 169.311C168.532 169.735 168.749 170.396 168.749 171.294V176.405H167.575V171.294C167.575 170.731 167.421 170.328 167.113 170.086C166.805 169.844 166.442 169.723 166.024 169.723C165.487 169.723 165.071 169.886 164.776 170.211C164.481 170.532 164.334 170.94 164.334 171.434V176.405H163.141V171.175C163.141 170.741 163 170.391 162.718 170.126C162.436 169.858 162.074 169.723 161.629 169.723C161.324 169.723 161.039 169.805 160.774 169.967C160.512 170.129 160.3 170.355 160.138 170.643C159.979 170.928 159.899 171.258 159.899 171.632V176.405H158.726ZM175.806 173.283V168.769H176.98V176.405H175.806V175.113H175.727C175.548 175.5 175.27 175.83 174.892 176.102C174.514 176.37 174.037 176.505 173.46 176.505C172.983 176.505 172.558 176.4 172.187 176.191C171.816 175.979 171.524 175.661 171.312 175.237C171.1 174.809 170.994 174.271 170.994 173.621V168.769H172.167V173.542C172.167 174.098 172.323 174.543 172.635 174.874C172.949 175.205 173.351 175.371 173.838 175.371C174.129 175.371 174.426 175.297 174.728 175.147C175.033 174.998 175.288 174.77 175.493 174.461C175.702 174.153 175.806 173.76 175.806 173.283ZM180.402 171.811V176.405H179.229V168.769H180.362V169.962H180.462C180.641 169.574 180.912 169.263 181.277 169.027C181.642 168.789 182.112 168.669 182.689 168.669C183.206 168.669 183.658 168.775 184.046 168.988C184.434 169.196 184.736 169.515 184.951 169.942C185.166 170.366 185.274 170.903 185.274 171.553V176.405H184.101V171.632C184.101 171.033 183.945 170.565 183.634 170.23C183.322 169.892 182.894 169.723 182.351 169.723C181.976 169.723 181.642 169.805 181.347 169.967C181.055 170.129 180.825 170.366 180.656 170.678C180.487 170.989 180.402 171.367 180.402 171.811ZM187.518 176.405V168.769H188.691V176.405H187.518ZM188.115 167.496C187.886 167.496 187.689 167.418 187.523 167.262C187.361 167.107 187.28 166.919 187.28 166.701C187.28 166.482 187.361 166.295 187.523 166.139C187.689 165.983 187.886 165.905 188.115 165.905C188.343 165.905 188.539 165.983 188.701 166.139C188.867 166.295 188.95 166.482 188.95 166.701C188.95 166.919 188.867 167.107 188.701 167.262C188.539 167.418 188.343 167.496 188.115 167.496ZM194.261 168.769V169.763H190.304V168.769H194.261ZM191.458 166.939H192.631V174.218C192.631 174.549 192.679 174.798 192.775 174.963C192.874 175.126 193 175.235 193.153 175.292C193.309 175.345 193.473 175.371 193.645 175.371C193.774 175.371 193.88 175.364 193.963 175.351C194.046 175.335 194.112 175.321 194.162 175.311L194.401 176.365C194.321 176.395 194.21 176.425 194.068 176.455C193.925 176.488 193.744 176.505 193.526 176.505C193.194 176.505 192.869 176.433 192.551 176.291C192.236 176.148 191.975 175.931 191.766 175.64C191.56 175.348 191.458 174.98 191.458 174.536V166.939ZM196.882 179.269C196.683 179.269 196.506 179.252 196.35 179.219C196.194 179.189 196.087 179.159 196.027 179.13L196.325 178.096C196.61 178.168 196.862 178.195 197.081 178.175C197.3 178.155 197.494 178.057 197.663 177.882C197.835 177.709 197.992 177.429 198.135 177.042L198.354 176.445L195.53 168.769H196.803L198.91 174.854H198.99L201.098 168.769H202.371L199.129 177.519C198.983 177.913 198.803 178.24 198.587 178.498C198.372 178.76 198.122 178.954 197.837 179.08C197.555 179.206 197.237 179.269 196.882 179.269Z" fill="#0F0F0F"/>
<path d="M17.6451 139.421V138.327H25.2814V139.421H22.0797V148.509H20.8468V139.421H17.6451ZM28.2985 143.916V148.509H27.1252V138.327H28.2985V142.066H28.3979C28.5769 141.672 28.8454 141.358 29.2033 141.126C29.5646 140.891 30.0452 140.773 30.6451 140.773C31.1655 140.773 31.6212 140.878 32.0123 141.087C32.4034 141.292 32.7067 141.609 32.9221 142.036C33.1408 142.461 33.2502 143.001 33.2502 143.657V148.509H32.0769V143.737C32.0769 143.13 31.9195 142.661 31.6046 142.33C31.2931 141.995 30.8605 141.827 30.307 141.827C29.9226 141.827 29.5779 141.909 29.2729 142.071C28.9713 142.233 28.7327 142.47 28.557 142.782C28.3847 143.094 28.2985 143.471 28.2985 143.916ZM38.6984 148.668C37.9626 148.668 37.3279 148.506 36.7943 148.181C36.264 147.853 35.8547 147.396 35.5663 146.809C35.2813 146.219 35.1387 145.533 35.1387 144.751C35.1387 143.969 35.2813 143.279 35.5663 142.683C35.8547 142.083 36.2557 141.615 36.7694 141.281C37.2865 140.943 37.8897 140.773 38.5791 140.773C38.9768 140.773 39.3696 140.84 39.7574 140.972C40.1451 141.105 40.4981 141.32 40.8163 141.619C41.1345 141.914 41.388 142.305 41.577 142.792C41.7659 143.279 41.8603 143.879 41.8603 144.592V145.089H35.974V144.075H40.6672C40.6672 143.644 40.581 143.259 40.4086 142.921C40.2396 142.583 39.9977 142.316 39.6828 142.121C39.3712 141.925 39.0033 141.827 38.5791 141.827C38.1118 141.827 37.7074 141.943 37.366 142.175C37.028 142.404 36.7678 142.702 36.5855 143.07C36.4032 143.438 36.312 143.833 36.312 144.254V144.93C36.312 145.506 36.4115 145.995 36.6103 146.396C36.8125 146.794 37.0926 147.097 37.4505 147.306C37.8085 147.512 38.2245 147.614 38.6984 147.614C39.0066 147.614 39.2851 147.571 39.5336 147.485C39.7855 147.396 40.0026 147.263 40.1849 147.087C40.3672 146.908 40.5081 146.686 40.6075 146.421L41.741 146.739C41.6217 147.124 41.4212 147.462 41.1395 147.754C40.8577 148.042 40.5097 148.267 40.0954 148.43C39.6811 148.589 39.2155 148.668 38.6984 148.668ZM50.0298 148.688C49.5459 148.688 49.1067 148.597 48.7123 148.415C48.3179 148.229 48.0047 147.962 47.7727 147.614C47.5407 147.263 47.4247 146.839 47.4247 146.342C47.4247 145.904 47.5109 145.55 47.6832 145.278C47.8556 145.003 48.0859 144.787 48.3743 144.631C48.6626 144.476 48.9808 144.36 49.3288 144.283C49.6801 144.204 50.0331 144.141 50.3878 144.095C50.8518 144.035 51.228 143.99 51.5163 143.96C51.808 143.927 52.0201 143.872 52.1527 143.796C52.2886 143.72 52.3565 143.587 52.3565 143.398V143.359C52.3565 142.868 52.2223 142.487 51.9538 142.215C51.6887 141.943 51.286 141.808 50.7457 141.808C50.1856 141.808 49.7464 141.93 49.4282 142.175C49.1101 142.421 48.8863 142.683 48.7571 142.961L47.6434 142.563C47.8423 142.099 48.1075 141.738 48.4389 141.479C48.7736 141.218 49.1382 141.035 49.5326 140.933C49.9304 140.827 50.3215 140.773 50.7059 140.773C50.9512 140.773 51.2329 140.803 51.5511 140.863C51.8726 140.919 52.1825 141.037 52.4808 141.216C52.7824 141.395 53.0326 141.665 53.2315 142.026C53.4304 142.388 53.5298 142.872 53.5298 143.478V148.509H52.3565V147.475H52.2968C52.2173 147.641 52.0847 147.818 51.8991 148.007C51.7135 148.196 51.4666 148.357 51.1584 148.489C50.8501 148.622 50.4739 148.688 50.0298 148.688ZM50.2088 147.634C50.6728 147.634 51.0639 147.543 51.3821 147.361C51.7036 147.179 51.9455 146.943 52.1079 146.655C52.2736 146.367 52.3565 146.063 52.3565 145.745V144.671C52.3068 144.731 52.1974 144.786 52.0284 144.835C51.8627 144.882 51.6704 144.923 51.4517 144.96C51.2362 144.993 51.0258 145.023 50.8203 145.049C50.6181 145.072 50.454 145.092 50.3281 145.109C50.0232 145.148 49.7381 145.213 49.473 145.303C49.2111 145.389 48.999 145.52 48.8366 145.695C48.6775 145.868 48.598 146.103 48.598 146.401C48.598 146.809 48.7488 147.117 49.0504 147.326C49.3553 147.532 49.7414 147.634 50.2088 147.634ZM61.7422 140.873L58.9183 148.509H57.7251L54.9013 140.873H56.174L58.282 146.958H58.3615L60.4695 140.873H61.7422ZM66.3191 148.668C65.5833 148.668 64.9486 148.506 64.415 148.181C63.8847 147.853 63.4754 147.396 63.187 146.809C62.902 146.219 62.7595 145.533 62.7595 144.751C62.7595 143.969 62.902 143.279 63.187 142.683C63.4754 142.083 63.8764 141.615 64.3901 141.281C64.9072 140.943 65.5104 140.773 66.1998 140.773C66.5975 140.773 66.9903 140.84 67.3781 140.972C67.7658 141.105 68.1188 141.32 68.437 141.619C68.7552 141.914 69.0087 142.305 69.1977 142.792C69.3866 143.279 69.481 143.879 69.481 144.592V145.089H63.5947V144.075H68.2879C68.2879 143.644 68.2017 143.259 68.0293 142.921C67.8603 142.583 67.6184 142.316 67.3035 142.121C66.9919 141.925 66.624 141.827 66.1998 141.827C65.7325 141.827 65.3281 141.943 64.9867 142.175C64.6487 142.404 64.3885 142.702 64.2062 143.07C64.0239 143.438 63.9327 143.833 63.9327 144.254V144.93C63.9327 145.506 64.0322 145.995 64.231 146.396C64.4332 146.794 64.7133 147.097 65.0712 147.306C65.4292 147.512 65.8452 147.614 66.3191 147.614C66.6273 147.614 66.9058 147.571 67.1543 147.485C67.4062 147.396 67.6233 147.263 67.8056 147.087C67.9879 146.908 68.1288 146.686 68.2282 146.421L69.3617 146.739C69.2424 147.124 69.0419 147.462 68.7602 147.754C68.4784 148.042 68.1304 148.267 67.7161 148.43C67.3018 148.589 66.8362 148.668 66.3191 148.668ZM71.3658 148.509V140.873H72.4994V142.026H72.5789C72.7181 141.648 72.97 141.342 73.3346 141.107C73.6992 140.871 74.1102 140.754 74.5675 140.754C74.6537 140.754 74.7614 140.755 74.8907 140.759C75.02 140.762 75.1177 140.767 75.184 140.773V141.967C75.1443 141.957 75.0531 141.942 74.9106 141.922C74.7714 141.899 74.6239 141.887 74.4681 141.887C74.0969 141.887 73.7655 141.965 73.4738 142.121C73.1854 142.273 72.9568 142.485 72.7877 142.757C72.622 143.026 72.5391 143.332 72.5391 143.677V148.509H71.3658ZM78.922 148.688C78.4381 148.688 77.9989 148.597 77.6045 148.415C77.2101 148.229 76.8969 147.962 76.6649 147.614C76.4329 147.263 76.3169 146.839 76.3169 146.342C76.3169 145.904 76.403 145.55 76.5754 145.278C76.7477 145.003 76.9781 144.787 77.2664 144.631C77.5548 144.476 77.873 144.36 78.221 144.283C78.5723 144.204 78.9253 144.141 79.2799 144.095C79.744 144.035 80.1201 143.99 80.4085 143.96C80.7002 143.927 80.9123 143.872 81.0449 143.796C81.1807 143.72 81.2487 143.587 81.2487 143.398V143.359C81.2487 142.868 81.1145 142.487 80.846 142.215C80.5808 141.943 80.1781 141.808 79.6379 141.808C79.0778 141.808 78.6386 141.93 78.3204 142.175C78.0022 142.421 77.7785 142.683 77.6493 142.961L76.5356 142.563C76.7345 142.099 76.9996 141.738 77.3311 141.479C77.6658 141.218 78.0304 141.035 78.4248 140.933C78.8226 140.827 79.2137 140.773 79.5981 140.773C79.8434 140.773 80.1251 140.803 80.4433 140.863C80.7648 140.919 81.0747 141.037 81.373 141.216C81.6746 141.395 81.9248 141.665 82.1237 142.026C82.3226 142.388 82.422 142.872 82.422 143.478V148.509H81.2487V147.475H81.189C81.1095 147.641 80.9769 147.818 80.7913 148.007C80.6057 148.196 80.3588 148.357 80.0505 148.489C79.7423 148.622 79.3661 148.688 78.922 148.688ZM79.101 147.634C79.565 147.634 79.9561 147.543 80.2743 147.361C80.5958 147.179 80.8377 146.943 81.0001 146.655C81.1658 146.367 81.2487 146.063 81.2487 145.745V144.671C81.199 144.731 81.0896 144.786 80.9206 144.835C80.7548 144.882 80.5626 144.923 80.3439 144.96C80.1284 144.993 79.918 145.023 79.7125 145.049C79.5103 145.072 79.3462 145.092 79.2203 145.109C78.9154 145.148 78.6303 145.213 78.3652 145.303C78.1033 145.389 77.8912 145.52 77.7288 145.695C77.5697 145.868 77.4902 146.103 77.4902 146.401C77.4902 146.809 77.641 147.117 77.9426 147.326C78.2475 147.532 78.6336 147.634 79.101 147.634ZM87.7459 151.532C87.1791 151.532 86.6919 151.459 86.2842 151.313C85.8766 151.171 85.5368 150.982 85.2651 150.747C84.9966 150.515 84.7828 150.266 84.6237 150.001L85.5584 149.345C85.6644 149.484 85.7987 149.643 85.9611 149.822C86.1235 150.004 86.3456 150.162 86.6273 150.294C86.9123 150.43 87.2852 150.498 87.7459 150.498C88.3624 150.498 88.8711 150.349 89.2722 150.05C89.6732 149.752 89.8737 149.285 89.8737 148.648V147.097H89.7743C89.6881 147.237 89.5655 147.409 89.4064 147.614C89.2506 147.817 89.0252 147.997 88.7303 148.156C88.4386 148.312 88.0442 148.39 87.547 148.39C86.9305 148.39 86.377 148.244 85.8865 147.952C85.3993 147.661 85.0132 147.237 84.7281 146.68C84.4464 146.123 84.3055 145.447 84.3055 144.651C84.3055 143.869 84.4431 143.188 84.7182 142.608C84.9933 142.025 85.3761 141.574 85.8666 141.256C86.3572 140.934 86.9239 140.773 87.5669 140.773C88.0641 140.773 88.4585 140.856 88.7501 141.022C89.0451 141.184 89.2705 141.37 89.4263 141.579C89.5854 141.784 89.708 141.953 89.7942 142.086H89.9135V140.873H91.047V148.728C91.047 149.384 90.8979 149.918 90.5996 150.329C90.3046 150.743 89.9069 151.046 89.4064 151.239C88.9092 151.434 88.3557 151.532 87.7459 151.532ZM87.7061 147.336C88.1768 147.336 88.5745 147.228 88.8993 147.013C89.2241 146.797 89.471 146.488 89.6401 146.083C89.8091 145.679 89.8936 145.195 89.8936 144.631C89.8936 144.081 89.8108 143.596 89.645 143.175C89.4793 142.754 89.2341 142.424 88.9092 142.185C88.5844 141.947 88.1834 141.827 87.7061 141.827C87.209 141.827 86.7947 141.953 86.4632 142.205C86.1351 142.457 85.8882 142.795 85.7225 143.22C85.56 143.644 85.4788 144.114 85.4788 144.631C85.4788 145.162 85.5617 145.631 85.7274 146.038C85.8965 146.443 86.145 146.761 86.4732 146.993C86.8046 147.222 87.2156 147.336 87.7061 147.336ZM96.4965 148.668C95.7607 148.668 95.126 148.506 94.5923 148.181C94.062 147.853 93.6527 147.396 93.3644 146.809C93.0793 146.219 92.9368 145.533 92.9368 144.751C92.9368 143.969 93.0793 143.279 93.3644 142.683C93.6527 142.083 94.0537 141.615 94.5675 141.281C95.0845 140.943 95.6877 140.773 96.3771 140.773C96.7749 140.773 97.1676 140.84 97.5554 140.972C97.9432 141.105 98.2962 141.32 98.6144 141.619C98.9325 141.914 99.1861 142.305 99.375 142.792C99.5639 143.279 99.6584 143.879 99.6584 144.592V145.089H93.772V144.075H98.4652C98.4652 143.644 98.379 143.259 98.2067 142.921C98.0376 142.583 97.7957 142.316 97.4808 142.121C97.1693 141.925 96.8014 141.827 96.3771 141.827C95.9098 141.827 95.5055 141.943 95.1641 142.175C94.826 142.404 94.5658 142.702 94.3835 143.07C94.2012 143.438 94.1101 143.833 94.1101 144.254V144.93C94.1101 145.506 94.2095 145.995 94.4084 146.396C94.6106 146.794 94.8906 147.097 95.2486 147.306C95.6065 147.512 96.0225 147.614 96.4965 147.614C96.8047 147.614 97.0831 147.571 97.3317 147.485C97.5836 147.396 97.8007 147.263 97.983 147.087C98.1653 146.908 98.3061 146.686 98.4055 146.421L99.5391 146.739C99.4198 147.124 99.2192 147.462 98.9375 147.754C98.6558 148.042 98.3078 148.267 97.8935 148.43C97.4792 148.589 97.0135 148.668 96.4965 148.668ZM105.581 151.373V140.873H106.714V142.086H106.853C106.94 141.953 107.059 141.784 107.211 141.579C107.367 141.37 107.589 141.184 107.878 141.022C108.169 140.856 108.564 140.773 109.061 140.773C109.704 140.773 110.271 140.934 110.761 141.256C111.252 141.577 111.634 142.033 111.91 142.623C112.185 143.213 112.322 143.909 112.322 144.711C112.322 145.52 112.185 146.221 111.91 146.814C111.634 147.404 111.253 147.861 110.766 148.186C110.279 148.508 109.717 148.668 109.081 148.668C108.59 148.668 108.197 148.587 107.902 148.425C107.607 148.259 107.38 148.072 107.221 147.863C107.062 147.651 106.94 147.475 106.853 147.336H106.754V151.373H105.581ZM106.734 144.691C106.734 145.268 106.819 145.777 106.988 146.217C107.157 146.655 107.404 146.998 107.728 147.247C108.053 147.492 108.451 147.614 108.922 147.614C109.412 147.614 109.821 147.485 110.15 147.227C110.481 146.965 110.73 146.613 110.895 146.173C111.064 145.729 111.149 145.235 111.149 144.691C111.149 144.154 111.066 143.67 110.9 143.239C110.738 142.805 110.491 142.462 110.16 142.21C109.831 141.955 109.419 141.827 108.922 141.827C108.444 141.827 108.043 141.948 107.718 142.19C107.394 142.429 107.148 142.764 106.983 143.195C106.817 143.622 106.734 144.121 106.734 144.691ZM117.414 148.668C116.678 148.668 116.043 148.506 115.51 148.181C114.979 147.853 114.57 147.396 114.282 146.809C113.997 146.219 113.854 145.533 113.854 144.751C113.854 143.969 113.997 143.279 114.282 142.683C114.57 142.083 114.971 141.615 115.485 141.281C116.002 140.943 116.605 140.773 117.294 140.773C117.692 140.773 118.085 140.84 118.473 140.972C118.86 141.105 119.213 141.32 119.532 141.619C119.85 141.914 120.103 142.305 120.292 142.792C120.481 143.279 120.576 143.879 120.576 144.592V145.089H114.689V144.075H119.382C119.382 143.644 119.296 143.259 119.124 142.921C118.955 142.583 118.713 142.316 118.398 142.121C118.086 141.925 117.719 141.827 117.294 141.827C116.827 141.827 116.423 141.943 116.081 142.175C115.743 142.404 115.483 142.702 115.301 143.07C115.118 143.438 115.027 143.833 115.027 144.254V144.93C115.027 145.506 115.127 145.995 115.326 146.396C115.528 146.794 115.808 147.097 116.166 147.306C116.524 147.512 116.94 147.614 117.414 147.614C117.722 147.614 118 147.571 118.249 147.485C118.501 147.396 118.718 147.263 118.9 147.087C119.082 146.908 119.223 146.686 119.323 146.421L120.456 146.739C120.337 147.124 120.136 147.462 119.855 147.754C119.573 148.042 119.225 148.267 118.811 148.43C118.396 148.589 117.931 148.668 117.414 148.668ZM122.46 148.509V140.873H123.594V142.026H123.673C123.813 141.648 124.065 141.342 124.429 141.107C124.794 140.871 125.205 140.754 125.662 140.754C125.748 140.754 125.856 140.755 125.985 140.759C126.114 140.762 126.212 140.767 126.279 140.773V141.967C126.239 141.957 126.148 141.942 126.005 141.922C125.866 141.899 125.718 141.887 125.563 141.887C125.191 141.887 124.86 141.965 124.568 142.121C124.28 142.273 124.051 142.485 123.882 142.757C123.717 143.026 123.634 143.332 123.634 143.677V148.509H122.46ZM133.178 142.583L132.124 142.881C132.058 142.706 131.96 142.535 131.831 142.369C131.705 142.2 131.533 142.061 131.314 141.952C131.095 141.842 130.815 141.788 130.474 141.788C130.007 141.788 129.617 141.895 129.306 142.111C128.997 142.323 128.843 142.593 128.843 142.921C128.843 143.213 128.949 143.443 129.161 143.612C129.374 143.781 129.705 143.922 130.156 144.035L131.289 144.313C131.972 144.479 132.481 144.733 132.816 145.074C133.15 145.412 133.318 145.848 133.318 146.381C133.318 146.819 133.192 147.21 132.94 147.555C132.691 147.899 132.343 148.171 131.896 148.37C131.448 148.569 130.928 148.668 130.335 148.668C129.556 148.668 128.911 148.499 128.401 148.161C127.89 147.823 127.567 147.329 127.431 146.68L128.545 146.401C128.651 146.812 128.852 147.121 129.146 147.326C129.445 147.532 129.834 147.634 130.315 147.634C130.862 147.634 131.296 147.518 131.617 147.286C131.942 147.051 132.105 146.769 132.105 146.441C132.105 146.176 132.012 145.954 131.826 145.775C131.641 145.593 131.356 145.457 130.971 145.367L129.698 145.069C128.999 144.903 128.485 144.646 128.157 144.298C127.832 143.947 127.67 143.508 127.67 142.981C127.67 142.55 127.791 142.169 128.033 141.837C128.278 141.506 128.611 141.246 129.032 141.057C129.456 140.868 129.937 140.773 130.474 140.773C131.23 140.773 131.823 140.939 132.254 141.271C132.688 141.602 132.996 142.04 133.178 142.583ZM138.286 148.668C137.597 148.668 136.992 148.504 136.471 148.176C135.954 147.848 135.55 147.389 135.258 146.799C134.97 146.209 134.826 145.52 134.826 144.731C134.826 143.935 134.97 143.241 135.258 142.648C135.55 142.055 135.954 141.594 136.471 141.266C136.992 140.938 137.597 140.773 138.286 140.773C138.975 140.773 139.579 140.938 140.096 141.266C140.616 141.594 141.02 142.055 141.309 142.648C141.6 143.241 141.746 143.935 141.746 144.731C141.746 145.52 141.6 146.209 141.309 146.799C141.02 147.389 140.616 147.848 140.096 148.176C139.579 148.504 138.975 148.668 138.286 148.668ZM138.286 147.614C138.81 147.614 139.241 147.48 139.579 147.212C139.917 146.943 140.167 146.59 140.329 146.153C140.492 145.715 140.573 145.241 140.573 144.731C140.573 144.22 140.492 143.745 140.329 143.304C140.167 142.863 139.917 142.507 139.579 142.235C139.241 141.963 138.81 141.827 138.286 141.827C137.762 141.827 137.332 141.963 136.993 142.235C136.655 142.507 136.405 142.863 136.243 143.304C136.08 143.745 135.999 144.22 135.999 144.731C135.999 145.241 136.08 145.715 136.243 146.153C136.405 146.59 136.655 146.943 136.993 147.212C137.332 147.48 137.762 147.614 138.286 147.614ZM144.811 143.916V148.509H143.637V140.873H144.771V142.066H144.87C145.049 141.678 145.321 141.367 145.686 141.131C146.05 140.893 146.521 140.773 147.098 140.773C147.615 140.773 148.067 140.88 148.455 141.092C148.843 141.3 149.144 141.619 149.36 142.046C149.575 142.47 149.683 143.007 149.683 143.657V148.509H148.509V143.737C148.509 143.137 148.354 142.669 148.042 142.335C147.731 141.997 147.303 141.827 146.759 141.827C146.385 141.827 146.05 141.909 145.755 142.071C145.464 142.233 145.233 142.47 145.064 142.782C144.895 143.094 144.811 143.471 144.811 143.916ZM155.964 148.509V140.873H157.138V148.509H155.964ZM156.561 139.6C156.332 139.6 156.135 139.522 155.969 139.367C155.807 139.211 155.726 139.023 155.726 138.805C155.726 138.586 155.807 138.399 155.969 138.243C156.135 138.087 156.332 138.009 156.561 138.009C156.79 138.009 156.985 138.087 157.148 138.243C157.313 138.399 157.396 138.586 157.396 138.805C157.396 139.023 157.313 139.211 157.148 139.367C156.985 139.522 156.79 139.6 156.561 139.6ZM160.56 143.916V148.509H159.387V140.873H160.52V142.066H160.62C160.798 141.678 161.07 141.367 161.435 141.131C161.799 140.893 162.27 140.773 162.847 140.773C163.364 140.773 163.816 140.88 164.204 141.092C164.592 141.3 164.893 141.619 165.109 142.046C165.324 142.47 165.432 143.007 165.432 143.657V148.509H164.259V143.737C164.259 143.137 164.103 142.669 163.791 142.335C163.48 141.997 163.052 141.827 162.509 141.827C162.134 141.827 161.799 141.909 161.504 142.071C161.213 142.233 160.982 142.47 160.813 142.782C160.644 143.094 160.56 143.471 160.56 143.916ZM178.833 141.509C178.723 141.175 178.579 140.875 178.4 140.609C178.225 140.341 178.014 140.112 177.769 139.923C177.527 139.734 177.252 139.59 176.944 139.491C176.635 139.391 176.297 139.342 175.929 139.342C175.326 139.342 174.778 139.497 174.284 139.809C173.79 140.121 173.397 140.58 173.106 141.186C172.814 141.793 172.668 142.537 172.668 143.418C172.668 144.3 172.816 145.044 173.111 145.651C173.405 146.257 173.805 146.716 174.309 147.028C174.812 147.339 175.379 147.495 176.009 147.495C176.592 147.495 177.106 147.371 177.55 147.122C177.998 146.87 178.346 146.516 178.594 146.058C178.846 145.598 178.972 145.056 178.972 144.433L179.35 144.512H176.287V143.418H180.165V144.512C180.165 145.351 179.986 146.08 179.628 146.7C179.274 147.319 178.783 147.8 178.157 148.141C177.534 148.479 176.818 148.648 176.009 148.648C175.107 148.648 174.315 148.436 173.633 148.012C172.953 147.588 172.423 146.985 172.042 146.202C171.664 145.42 171.475 144.492 171.475 143.418C171.475 142.613 171.583 141.889 171.798 141.246C172.017 140.599 172.325 140.049 172.723 139.595C173.12 139.141 173.591 138.793 174.135 138.551C174.678 138.309 175.276 138.188 175.929 138.188C176.466 138.188 176.967 138.269 177.431 138.432C177.898 138.591 178.314 138.818 178.679 139.113C179.047 139.405 179.353 139.754 179.598 140.162C179.844 140.566 180.013 141.015 180.106 141.509H178.833ZM185.42 148.668C184.684 148.668 184.049 148.506 183.515 148.181C182.985 147.853 182.576 147.396 182.287 146.809C182.002 146.219 181.86 145.533 181.86 144.751C181.86 143.969 182.002 143.279 182.287 142.683C182.576 142.083 182.977 141.615 183.491 141.281C184.008 140.943 184.611 140.773 185.3 140.773C185.698 140.773 186.091 140.84 186.478 140.972C186.866 141.105 187.219 141.32 187.537 141.619C187.856 141.914 188.109 142.305 188.298 142.792C188.487 143.279 188.581 143.879 188.581 144.592V145.089H182.695V144.075H187.388C187.388 143.644 187.302 143.259 187.13 142.921C186.961 142.583 186.719 142.316 186.404 142.121C186.092 141.925 185.724 141.827 185.3 141.827C184.833 141.827 184.429 141.943 184.087 142.175C183.749 142.404 183.489 142.702 183.307 143.07C183.124 143.438 183.033 143.833 183.033 144.254V144.93C183.033 145.506 183.133 145.995 183.331 146.396C183.534 146.794 183.814 147.097 184.172 147.306C184.53 147.512 184.946 147.614 185.42 147.614C185.728 147.614 186.006 147.571 186.255 147.485C186.507 147.396 186.724 147.263 186.906 147.087C187.088 146.908 187.229 146.686 187.329 146.421L188.462 146.739C188.343 147.124 188.142 147.462 187.861 147.754C187.579 148.042 187.231 148.267 186.817 148.43C186.402 148.589 185.937 148.668 185.42 148.668ZM190.466 148.509V140.873H191.6V142.026H191.679C191.819 141.648 192.07 141.342 192.435 141.107C192.8 140.871 193.211 140.754 193.668 140.754C193.754 140.754 193.862 140.755 193.991 140.759C194.12 140.762 194.218 140.767 194.284 140.773V141.967C194.245 141.957 194.153 141.942 194.011 141.922C193.872 141.899 193.724 141.887 193.569 141.887C193.197 141.887 192.866 141.965 192.574 142.121C192.286 142.273 192.057 142.485 191.888 142.757C191.722 143.026 191.64 143.332 191.64 143.677V148.509H190.466ZM195.775 148.509V140.873H196.909V142.066H197.008C197.167 141.658 197.424 141.342 197.779 141.117C198.133 140.888 198.559 140.773 199.056 140.773C199.56 140.773 199.98 140.888 200.314 141.117C200.652 141.342 200.916 141.658 201.105 142.066H201.184C201.38 141.672 201.673 141.358 202.064 141.126C202.455 140.891 202.924 140.773 203.471 140.773C204.154 140.773 204.712 140.987 205.147 141.415C205.581 141.839 205.798 142.5 205.798 143.398V148.509H204.625V143.398C204.625 142.835 204.471 142.432 204.162 142.19C203.854 141.948 203.491 141.827 203.074 141.827C202.537 141.827 202.121 141.99 201.826 142.315C201.531 142.636 201.383 143.044 201.383 143.538V148.509H200.19V143.279C200.19 142.845 200.049 142.495 199.767 142.23C199.486 141.962 199.123 141.827 198.679 141.827C198.374 141.827 198.089 141.909 197.824 142.071C197.562 142.233 197.35 142.459 197.187 142.747C197.028 143.032 196.949 143.362 196.949 143.737V148.509H195.775ZM210.29 148.688C209.806 148.688 209.367 148.597 208.973 148.415C208.578 148.229 208.265 147.962 208.033 147.614C207.801 147.263 207.685 146.839 207.685 146.342C207.685 145.904 207.771 145.55 207.944 145.278C208.116 145.003 208.346 144.787 208.635 144.631C208.923 144.476 209.241 144.36 209.589 144.283C209.941 144.204 210.294 144.141 210.648 144.095C211.112 144.035 211.489 143.99 211.777 143.96C212.069 143.927 212.281 143.872 212.413 143.796C212.549 143.72 212.617 143.587 212.617 143.398V143.359C212.617 142.868 212.483 142.487 212.214 142.215C211.949 141.943 211.547 141.808 211.006 141.808C210.446 141.808 210.007 141.93 209.689 142.175C209.371 142.421 209.147 142.683 209.018 142.961L207.904 142.563C208.103 142.099 208.368 141.738 208.699 141.479C209.034 141.218 209.399 141.035 209.793 140.933C210.191 140.827 210.582 140.773 210.966 140.773C211.212 140.773 211.493 140.803 211.812 140.863C212.133 140.919 212.443 141.037 212.741 141.216C213.043 141.395 213.293 141.665 213.492 142.026C213.691 142.388 213.79 142.872 213.79 143.478V148.509H212.617V147.475H212.557C212.478 147.641 212.345 147.818 212.16 148.007C211.974 148.196 211.727 148.357 211.419 148.489C211.111 148.622 210.734 148.688 210.29 148.688ZM210.469 147.634C210.933 147.634 211.324 147.543 211.643 147.361C211.964 147.179 212.206 146.943 212.368 146.655C212.534 146.367 212.617 146.063 212.617 145.745V144.671C212.567 144.731 212.458 144.786 212.289 144.835C212.123 144.882 211.931 144.923 211.712 144.96C211.497 144.993 211.286 145.023 211.081 145.049C210.879 145.072 210.715 145.092 210.589 145.109C210.284 145.148 209.999 145.213 209.734 145.303C209.472 145.389 209.26 145.52 209.097 145.695C208.938 145.868 208.859 146.103 208.859 146.401C208.859 146.809 209.009 147.117 209.311 147.326C209.616 147.532 210.002 147.634 210.469 147.634ZM217.205 143.916V148.509H216.032V140.873H217.165V142.066H217.265C217.444 141.678 217.716 141.367 218.08 141.131C218.445 140.893 218.915 140.773 219.492 140.773C220.009 140.773 220.462 140.88 220.849 141.092C221.237 141.3 221.539 141.619 221.754 142.046C221.97 142.47 222.077 143.007 222.077 143.657V148.509H220.904V143.737C220.904 143.137 220.748 142.669 220.437 142.335C220.125 141.997 219.698 141.827 219.154 141.827C218.779 141.827 218.445 141.909 218.15 142.071C217.858 142.233 217.628 142.47 217.459 142.782C217.29 143.094 217.205 143.471 217.205 143.916ZM224.804 151.373C224.605 151.373 224.427 151.356 224.272 151.323C224.116 151.293 224.008 151.264 223.948 151.234L224.247 150.2C224.532 150.273 224.784 150.299 225.002 150.279C225.221 150.259 225.415 150.162 225.584 149.986C225.756 149.814 225.914 149.533 226.056 149.146L226.275 148.549L223.451 140.873H224.724L226.832 146.958H226.912L229.019 140.873H230.292L227.051 149.623C226.905 150.017 226.724 150.344 226.509 150.602C226.293 150.864 226.043 151.058 225.758 151.184C225.476 151.31 225.158 151.373 224.804 151.373ZM239.18 148.668C238.444 148.668 237.81 148.506 237.276 148.181C236.746 147.853 236.336 147.396 236.048 146.809C235.763 146.219 235.62 145.533 235.62 144.751C235.62 143.969 235.763 143.279 236.048 142.683C236.336 142.083 236.737 141.615 237.251 141.281C237.768 140.943 238.371 140.773 239.061 140.773C239.458 140.773 239.851 140.84 240.239 140.972C240.627 141.105 240.98 141.32 241.298 141.619C241.616 141.914 241.87 142.305 242.059 142.792C242.248 143.279 242.342 143.879 242.342 144.592V145.089H236.456V144.075H241.149C241.149 143.644 241.063 143.259 240.89 142.921C240.721 142.583 240.479 142.316 240.164 142.121C239.853 141.925 239.485 141.827 239.061 141.827C238.593 141.827 238.189 141.943 237.848 142.175C237.51 142.404 237.249 142.702 237.067 143.07C236.885 143.438 236.794 143.833 236.794 144.254V144.93C236.794 145.506 236.893 145.995 237.092 146.396C237.294 146.794 237.574 147.097 237.932 147.306C238.29 147.512 238.706 147.614 239.18 147.614C239.488 147.614 239.767 147.571 240.015 147.485C240.267 147.396 240.484 147.263 240.667 147.087C240.849 146.908 240.99 146.686 241.089 146.421L242.223 146.739C242.103 147.124 241.903 147.462 241.621 147.754C241.339 148.042 240.991 148.267 240.577 148.43C240.163 148.589 239.697 148.668 239.18 148.668ZM244.227 148.509V140.873H245.36V142.066H245.46C245.619 141.658 245.876 141.342 246.23 141.117C246.585 140.888 247.011 140.773 247.508 140.773C248.012 140.773 248.431 140.888 248.766 141.117C249.104 141.342 249.367 141.658 249.556 142.066H249.636C249.831 141.672 250.125 141.358 250.516 141.126C250.907 140.891 251.376 140.773 251.923 140.773C252.606 140.773 253.164 140.987 253.598 141.415C254.032 141.839 254.25 142.5 254.25 143.398V148.509H253.076V143.398C253.076 142.835 252.922 142.432 252.614 142.19C252.306 141.948 251.943 141.827 251.525 141.827C250.988 141.827 250.572 141.99 250.277 142.315C249.982 142.636 249.835 143.044 249.835 143.538V148.509H248.642V143.279C248.642 142.845 248.501 142.495 248.219 142.23C247.937 141.962 247.574 141.827 247.13 141.827C246.825 141.827 246.54 141.909 246.275 142.071C246.013 142.233 245.801 142.459 245.639 142.747C245.48 143.032 245.4 143.362 245.4 143.737V148.509H244.227ZM256.495 148.509V140.873H257.668V148.509H256.495ZM257.091 139.6C256.863 139.6 256.665 139.522 256.5 139.367C256.337 139.211 256.256 139.023 256.256 138.805C256.256 138.586 256.337 138.399 256.5 138.243C256.665 138.087 256.863 138.009 257.091 138.009C257.32 138.009 257.516 138.087 257.678 138.243C257.844 138.399 257.927 138.586 257.927 138.805C257.927 139.023 257.844 139.211 257.678 139.367C257.516 139.522 257.32 139.6 257.091 139.6ZM263.238 140.873V141.867H259.281V140.873H263.238ZM260.434 139.043H261.607V146.322C261.607 146.653 261.655 146.902 261.752 147.068C261.851 147.23 261.977 147.339 262.129 147.396C262.285 147.449 262.449 147.475 262.622 147.475C262.751 147.475 262.857 147.469 262.94 147.455C263.023 147.439 263.089 147.425 263.139 147.416L263.377 148.47C263.298 148.499 263.187 148.529 263.044 148.559C262.902 148.592 262.721 148.609 262.502 148.609C262.171 148.609 261.846 148.537 261.528 148.395C261.213 148.252 260.951 148.035 260.742 147.744C260.537 147.452 260.434 147.084 260.434 146.64V139.043ZM270.375 142.583L269.321 142.881C269.255 142.706 269.157 142.535 269.028 142.369C268.902 142.2 268.73 142.061 268.511 141.952C268.292 141.842 268.012 141.788 267.671 141.788C267.203 141.788 266.814 141.895 266.502 142.111C266.194 142.323 266.04 142.593 266.04 142.921C266.04 143.213 266.146 143.443 266.358 143.612C266.57 143.781 266.902 143.922 267.353 144.035L268.486 144.313C269.169 144.479 269.678 144.733 270.012 145.074C270.347 145.412 270.515 145.848 270.515 146.381C270.515 146.819 270.389 147.21 270.137 147.555C269.888 147.899 269.54 148.171 269.093 148.37C268.645 148.569 268.125 148.668 267.532 148.668C266.753 148.668 266.108 148.499 265.598 148.161C265.087 147.823 264.764 147.329 264.628 146.68L265.742 146.401C265.848 146.812 266.048 147.121 266.343 147.326C266.642 147.532 267.031 147.634 267.512 147.634C268.059 147.634 268.493 147.518 268.814 147.286C269.139 147.051 269.301 146.769 269.301 146.441C269.301 146.176 269.209 145.954 269.023 145.775C268.837 145.593 268.552 145.457 268.168 145.367L266.895 145.069C266.196 144.903 265.682 144.646 265.354 144.298C265.029 143.947 264.867 143.508 264.867 142.981C264.867 142.55 264.988 142.169 265.23 141.837C265.475 141.506 265.808 141.246 266.229 141.057C266.653 140.868 267.134 140.773 267.671 140.773C268.426 140.773 269.02 140.939 269.451 141.271C269.885 141.602 270.193 142.04 270.375 142.583ZM279.978 138.327V148.509H278.745V139.62H278.685L276.199 141.271V140.018L278.745 138.327H279.978ZM283.006 148.509V147.614L286.367 143.935C286.761 143.505 287.086 143.13 287.341 142.812C287.597 142.49 287.785 142.189 287.908 141.907C288.034 141.622 288.097 141.324 288.097 141.012C288.097 140.654 288.011 140.344 287.839 140.082C287.669 139.821 287.437 139.618 287.142 139.476C286.848 139.333 286.516 139.262 286.148 139.262C285.757 139.262 285.416 139.343 285.124 139.506C284.836 139.665 284.612 139.889 284.453 140.177C284.297 140.465 284.219 140.803 284.219 141.191H283.046C283.046 140.595 283.183 140.071 283.459 139.62C283.734 139.169 284.108 138.818 284.582 138.566C285.059 138.314 285.595 138.188 286.188 138.188C286.785 138.188 287.313 138.314 287.774 138.566C288.235 138.818 288.596 139.158 288.858 139.585C289.12 140.013 289.25 140.488 289.25 141.012C289.25 141.387 289.182 141.753 289.047 142.111C288.914 142.465 288.682 142.862 288.351 143.299C288.022 143.733 287.567 144.264 286.983 144.89L284.696 147.336V147.416H289.429V148.509H283.006ZM294.924 140.873V141.867H290.966V140.873H294.924ZM292.12 139.043H293.293V146.322C293.293 146.653 293.341 146.902 293.437 147.068C293.536 147.23 293.662 147.339 293.815 147.396C293.971 147.449 294.135 147.475 294.307 147.475C294.436 147.475 294.542 147.469 294.625 147.455C294.708 147.439 294.774 147.425 294.824 147.416L295.063 148.47C294.983 148.499 294.872 148.529 294.73 148.559C294.587 148.592 294.407 148.609 294.188 148.609C293.856 148.609 293.532 148.537 293.213 148.395C292.898 148.252 292.637 148.035 292.428 147.744C292.222 147.452 292.12 147.084 292.12 146.64V139.043ZM309.178 141.509H307.945C307.872 141.155 307.745 140.843 307.563 140.575C307.384 140.306 307.165 140.081 306.906 139.898C306.651 139.713 306.368 139.574 306.056 139.481C305.745 139.388 305.42 139.342 305.082 139.342C304.465 139.342 303.907 139.497 303.406 139.809C302.909 140.121 302.513 140.58 302.218 141.186C301.926 141.793 301.781 142.537 301.781 143.418C301.781 144.3 301.926 145.044 302.218 145.651C302.513 146.257 302.909 146.716 303.406 147.028C303.907 147.339 304.465 147.495 305.082 147.495C305.42 147.495 305.745 147.449 306.056 147.356C306.368 147.263 306.651 147.126 306.906 146.943C307.165 146.758 307.384 146.531 307.563 146.262C307.745 145.99 307.872 145.679 307.945 145.327H309.178C309.085 145.848 308.916 146.314 308.671 146.724C308.426 147.135 308.121 147.485 307.756 147.773C307.392 148.059 306.982 148.276 306.528 148.425C306.078 148.574 305.595 148.648 305.082 148.648C304.213 148.648 303.441 148.436 302.765 148.012C302.089 147.588 301.557 146.985 301.169 146.202C300.781 145.42 300.587 144.492 300.587 143.418C300.587 142.345 300.781 141.416 301.169 140.634C301.557 139.852 302.089 139.249 302.765 138.825C303.441 138.4 304.213 138.188 305.082 138.188C305.595 138.188 306.078 138.263 306.528 138.412C306.982 138.561 307.392 138.78 307.756 139.068C308.121 139.353 308.426 139.701 308.671 140.112C308.916 140.52 309.085 140.986 309.178 141.509ZM319.862 143.418C319.862 144.492 319.668 145.42 319.28 146.202C318.892 146.985 318.36 147.588 317.684 148.012C317.008 148.436 316.236 148.648 315.367 148.648C314.499 148.648 313.727 148.436 313.05 148.012C312.374 147.588 311.842 146.985 311.455 146.202C311.067 145.42 310.873 144.492 310.873 143.418C310.873 142.345 311.067 141.416 311.455 140.634C311.842 139.852 312.374 139.249 313.05 138.825C313.727 138.4 314.499 138.188 315.367 138.188C316.236 138.188 317.008 138.4 317.684 138.825C318.36 139.249 318.892 139.852 319.28 140.634C319.668 141.416 319.862 142.345 319.862 143.418ZM318.668 143.418C318.668 142.537 318.521 141.793 318.226 141.186C317.934 140.58 317.538 140.121 317.038 139.809C316.541 139.497 315.984 139.342 315.367 139.342C314.751 139.342 314.192 139.497 313.692 139.809C313.195 140.121 312.799 140.58 312.504 141.186C312.212 141.793 312.066 142.537 312.066 143.418C312.066 144.3 312.212 145.044 312.504 145.651C312.799 146.257 313.195 146.716 313.692 147.028C314.192 147.339 314.751 147.495 315.367 147.495C315.984 147.495 316.541 147.339 317.038 147.028C317.538 146.716 317.934 146.257 318.226 145.651C318.521 145.044 318.668 144.3 318.668 143.418ZM321.856 148.509V147.614L325.217 143.935C325.611 143.505 325.936 143.13 326.191 142.812C326.446 142.49 326.635 142.189 326.758 141.907C326.884 141.622 326.947 141.324 326.947 141.012C326.947 140.654 326.86 140.344 326.688 140.082C326.519 139.821 326.287 139.618 325.992 139.476C325.697 139.333 325.366 139.262 324.998 139.262C324.607 139.262 324.265 139.343 323.974 139.506C323.685 139.665 323.462 139.889 323.302 140.177C323.147 140.465 323.069 140.803 323.069 141.191H321.896C321.896 140.595 322.033 140.071 322.308 139.62C322.583 139.169 322.958 138.818 323.432 138.566C323.909 138.314 324.444 138.188 325.038 138.188C325.634 138.188 326.163 138.314 326.623 138.566C327.084 138.818 327.445 139.158 327.707 139.585C327.969 140.013 328.1 140.488 328.1 141.012C328.1 141.387 328.032 141.753 327.896 142.111C327.764 142.465 327.532 142.862 327.2 143.299C326.872 143.733 326.416 144.264 325.833 144.89L323.546 147.336V147.416H328.279V148.509H321.856ZM333.654 148.668C332.918 148.668 332.283 148.506 331.75 148.181C331.219 147.853 330.81 147.396 330.522 146.809C330.237 146.219 330.094 145.533 330.094 144.751C330.094 143.969 330.237 143.279 330.522 142.683C330.81 142.083 331.211 141.615 331.725 141.281C332.242 140.943 332.845 140.773 333.535 140.773C333.932 140.773 334.325 140.84 334.713 140.972C335.101 141.105 335.454 141.32 335.772 141.619C336.09 141.914 336.343 142.305 336.532 142.792C336.721 143.279 336.816 143.879 336.816 144.592V145.089H330.929V144.075H335.623C335.623 143.644 335.536 143.259 335.364 142.921C335.195 142.583 334.953 142.316 334.638 142.121C334.327 141.925 333.959 141.827 333.535 141.827C333.067 141.827 332.663 141.943 332.321 142.175C331.983 142.404 331.723 142.702 331.541 143.07C331.359 143.438 331.268 143.833 331.268 144.254V144.93C331.268 145.506 331.367 145.995 331.566 146.396C331.768 146.794 332.048 147.097 332.406 147.306C332.764 147.512 333.18 147.614 333.654 147.614C333.962 147.614 334.241 147.571 334.489 147.485C334.741 147.396 334.958 147.263 335.14 147.087C335.323 146.908 335.464 146.686 335.563 146.421L336.696 146.739C336.577 147.124 336.377 147.462 336.095 147.754C335.813 148.042 335.465 148.267 335.051 148.43C334.637 148.589 334.171 148.668 333.654 148.668Z" fill="#0F0F0F"/>
</g>
<defs>
<filter id="filter0_d_581_5918" x="0" y="0" width="365" height="272" filterUnits="userSpaceOnUse" color-interpolation-filters="sRGB">
<feFlood flood-opacity="0" result="BackgroundImageFix"/>
<feColorMatrix in="SourceAlpha" type="matrix" values="0 0 0 0 0 0 0 0 0 0 0 0 0 0 0 0 0 0 127 0" result="hardAlpha"/>
<feMorphology radius="2" operator="erode" in="SourceAlpha" result="effect1_dropShadow_581_5918"/>
<feOffset dy="4"/>
<feGaussianBlur stdDeviation="4"/>
<feComposite in2="hardAlpha" operator="out"/>
<feColorMatrix type="matrix" values="0 0 0 0 0.25 0 0 0 0 0.25 0 0 0 0 0.25 0 0 0 0.15 0"/>
<feBlend mode="normal" in2="BackgroundImageFix" result="effect1_dropShadow_581_5918"/>
<feBlend mode="normal" in="SourceGraphic" in2="effect1_dropShadow_581_5918" result="shape"/>
</filter>
</defs>
</svg>
